<?xml version="1.0" encoding="UTF-8" standalone="no"?>
<!-- Created with Inkscape (http://www.inkscape.org/) -->

<svg
   xmlns:dc="http://purl.org/dc/elements/1.1/"
   xmlns:cc="http://creativecommons.org/ns#"
   xmlns:rdf="http://www.w3.org/1999/02/22-rdf-syntax-ns#"
   xmlns:svg="http://www.w3.org/2000/svg"
   xmlns="http://www.w3.org/2000/svg"
   xmlns:sodipodi="http://sodipodi.sourceforge.net/DTD/sodipodi-0.dtd"
   xmlns:inkscape="http://www.inkscape.org/namespaces/inkscape"
   id="svg3406"
   version="1.1"
   inkscape:version="0.91 r13725"
   width="729.93152"
   height="1280.0267"
   viewBox="0 0 729.93152 1280.0267"
   sodipodi:docname="silhouette-hockey-03.svg">
  <title
     id="title3340">Silhouette Hockey 03</title>
  <metadata
     id="metadata3412">
    <rdf:RDF>
      <cc:Work
         rdf:about="">
        <dc:format>image/svg+xml</dc:format>
        <dc:type
           rdf:resource="http://purl.org/dc/dcmitype/StillImage" />
        <dc:title>Silhouette Hockey 03</dc:title>
        <cc:license
           rdf:resource="http://creativecommons.org/publicdomain/zero/1.0/" />
        <dc:date>2017-02-19</dc:date>
        <dc:creator>
          <cc:Agent>
            <dc:title>JLouis</dc:title>
          </cc:Agent>
        </dc:creator>
        <dc:rights>
          <cc:Agent>
            <dc:title>Domaine pubic</dc:title>
          </cc:Agent>
        </dc:rights>
        <dc:publisher>
          <cc:Agent>
            <dc:title>inkscape</dc:title>
          </cc:Agent>
        </dc:publisher>
        <dc:subject>
          <rdf:Bag>
            <rdf:li>silhouette</rdf:li>
            <rdf:li>hockey</rdf:li>
            <rdf:li>sport</rdf:li>
            <rdf:li>players</rdf:li>
            <rdf:li>joueurs</rdf:li>
          </rdf:Bag>
        </dc:subject>
        <dc:description>Silhouette: Ice Hockey players in action - Silhouette : Joueurs de Hockey sur glace en action.</dc:description>
      </cc:Work>
      <cc:License
         rdf:about="http://creativecommons.org/publicdomain/zero/1.0/">
        <cc:permits
           rdf:resource="http://creativecommons.org/ns#Reproduction" />
        <cc:permits
           rdf:resource="http://creativecommons.org/ns#Distribution" />
        <cc:permits
           rdf:resource="http://creativecommons.org/ns#DerivativeWorks" />
      </cc:License>
    </rdf:RDF>
  </metadata>
  <defs
     id="defs3410" />
  <sodipodi:namedview
     pagecolor="#ffffff"
     bordercolor="#666666"
     borderopacity="1"
     objecttolerance="10"
     gridtolerance="10"
     guidetolerance="10"
     inkscape:pageopacity="0"
     inkscape:pageshadow="2"
     inkscape:window-width="1235"
     inkscape:window-height="756"
     id="namedview3408"
     showgrid="false"
     fit-margin-top="0"
     fit-margin-left="0"
     fit-margin-right="0"
     fit-margin-bottom="0"
     inkscape:zoom="0.40942029"
     inkscape:cx="366.35409"
     inkscape:cy="647.09275"
     inkscape:window-x="0"
     inkscape:window-y="0"
     inkscape:window-maximized="1"
     inkscape:current-layer="svg3406" />
  <g
     id="g3416"
     transform="translate(-86.31848,-47.296121)">
    <path
       style="fill:#d0eafe"
       d="m 364.375,1326.1953 c -2.75,-0.5669 -7.25,-1.8264 -10,-2.7988 l -5,-1.7681 -0.34195,-13.0016 -0.34195,-13.0018 5.34195,-2.1 c 9.39493,-3.6934 21.32169,-4.0274 37.6759,-1.0551 8.09022,1.4702 15.51535,2.9825 16.50027,3.3604 2.43541,0.9346 2.60114,25.6911 0.18542,27.6959 -4.05366,3.3643 -32.33102,5.0788 -44.01964,2.669 z m 32.03165,-62.9699 c -9.79913,-5.374 -12.25842,-7.5489 -15.3205,-13.5486 -1.81877,-3.5636 -24.83615,-87.0409 -24.83615,-90.0734 0,-0.3283 -4.74043,-0.7952 -10.53427,-1.0376 -12.52018,-0.5239 -16.34188,-2.6993 -19.94608,-11.3537 -2.82789,-6.7904 -2.10442,-12.5178 2.35388,-18.6349 6.37811,-8.7512 6.42172,-9.9201 0.56482,-15.1397 -2.89292,-2.5781 -4.76565,-4.6878 -4.16161,-4.6882 0.60405,-4e-4 2.4673,-5.9698 4.14056,-13.2655 2.82882,-12.334 4.39695,-15.8626 7.52586,-16.9347 0.68415,-0.2344 -18.17565,-71.5016 -42.16517,-159.33328 L 250.625,760.30664 l -12.5,-0.61101 c -11.6889,-0.57137 -12.98629,-0.9084 -19.99431,-5.19418 -10.90349,-6.66805 -17.85795,-13.97217 -22.5986,-23.73484 -5.44723,-11.21771 -6.60433,-18.61394 -3.68519,-23.55565 1.89451,-3.20716 1.99662,-4.63883 0.77407,-10.85297 -2.50727,-12.74425 2.73795,-37.60799 7.93374,-37.60799 1.06991,0 1.94529,-0.5625 1.94529,-1.25 0,-0.69306 3.30874,-1.25 7.42622,-1.25 4.08443,0 7.70682,-0.45399 8.04974,-1.00885 1.10475,-1.78753 -50.1297,-162.59936 -54.47457,-170.98175 -6.64884,-12.82735 -6.55144,-12.74704 -11.24788,-9.27481 l -4.00014,2.95742 -9.00633,-4.76003 c -7.4693,-3.94769 -10.1417,-6.27867 -15.65907,-13.65852 -3.659,-4.89415 -9.76003,-12.3259 -13.55785,-16.51498 -4.31368,-4.7581 -10.071645,-13.59486 -15.34262,-23.54634 -8.053149,-15.20417 -9.886075,-20.91933 -7.234638,-22.558 0.758713,-0.46892 0.70715,-1.83139 -0.139643,-3.6899 -0.998084,-2.19055 -0.82615,-5.94722 0.670166,-14.64287 2.091662,-12.15541 6.506379,-45.36998 7.618876,-57.32137 1.505993,-16.17868 4.576189,-18.125 28.590909,-18.125 l 17.31818,0 3.04351,-5.98714 c 3.39191,-6.67251 6.43934,-8.38786 14.90151,-8.38786 4.30733,0 5.54363,-0.45771 5.54363,-2.05243 0,-1.12882 2.25,-5.61503 5,-9.96936 2.95302,-4.67579 5,-9.4469 5,-11.65407 0,-2.35434 1.36199,-5.28837 3.68086,-7.92943 2.02448,-2.30574 4.9836,-6.68469 6.57584,-9.73099 2.05209,-3.92608 3.80096,-5.66458 6.00664,-5.971 1.71141,-0.23775 3.81915,-1.01336 4.68385,-1.72358 2.35658,-1.9356 25.72076,-13.46914 27.28523,-13.46914 0.74658,0 5.11135,-3.8884 9.69949,-8.64089 l 8.34208,-8.64087 13.4255,-1.43488 c 18.16971,-1.94191 23.42906,-3.24959 29.50387,-7.33575 2.8444,-1.91327 13.60914,-8.17176 23.92164,-13.90777 10.3125,-5.736 23.40221,-13.17744 29.08824,-16.53651 12.70138,-7.50349 26.69538,-14.73903 28.52207,-14.74723 0.74816,-0.004 2.66394,-6.33422 4.25726,-14.0686 5.36927,-26.06365 9.22997,-37.42541 16.96743,-49.933937 6.76774,-10.94085 20.51907,-25.875937 23.90662,-25.964545 0.82039,-0.02146 2.25243,-1.125223 3.1823,-2.452808 0.92988,-1.327584 7.57115,-5.310952 14.75838,-8.851929 l 13.0677,-6.43814 15.625,0.757074 c 8.59375,0.41639 24.37785,0.693142 35.07577,0.615006 23.33934,-0.170469 28.55672,0.955688 33.31209,7.190305 4.5583,5.976241 14.34321,22.540711 19.91903,33.720119 4.07176,8.163801 4.57392,10.36917 5.69247,24.999995 0.67473,8.8255 0.96852,20.91128 0.65287,26.8573 -0.4905,9.23942 -1.14733,11.81313 -4.51858,17.70547 -4.47014,7.81298 -8.88365,19.81823 -8.88365,24.1645 0,1.95833 2.99582,5.89263 9.13131,11.99181 5.02223,4.9925 11.43167,12.17103 14.24319,15.95228 2.81151,3.78125 7.74425,9.40625 10.96162,12.5 3.21738,3.09375 7.84972,8.33109 10.2941,11.63854 2.44439,3.30745 8.26499,9.22958 12.93469,13.1603 8.56739,7.21161 24.50248,28.30606 33.67353,44.57616 2.32516,4.125 7.35708,11.99086 11.18206,17.47969 3.82498,5.48883 8.13685,12.42877 9.58194,15.42208 l 2.62745,5.44239 17.37255,5.90518 c 9.55491,3.24783 20.5873,7.37717 24.51642,9.17628 9.07972,4.15753 23.47913,15.75298 28.89892,23.27152 5.52281,7.66143 15.83222,32.63139 15.83222,38.34649 0,2.47264 0.64951,5.70936 1.44338,7.19268 0.79385,1.48334 1.83253,6.67175 2.30819,11.52981 0.6289,6.42314 1.75812,10.1834 4.13914,13.78337 6.78063,10.25182 17.32268,36.14887 21.59752,53.05528 2.34397,9.27013 4.26177,18.08259 4.26177,19.58324 0,1.5348 1.50082,3.82175 3.43054,5.22745 3.26083,2.37535 3.42641,2.99293 3.34711,12.48469 -0.0607,7.27827 -0.67376,10.88667 -2.26071,13.30865 -3.10469,4.73835 -12.08068,10.06239 -22.09048,13.10276 l -8.62107,2.61858 0.72608,5.29745 c 0.98302,7.17182 -1.55559,27.0327 -4.65138,36.39031 -1.38873,4.19765 -4.38139,10.72585 -6.65036,14.5071 -2.26899,3.78125 -7.98049,14.46875 -12.69223,23.75 -16.81221,33.1169 -23.68206,41.37563 -39.1125,47.01979 -15.13706,5.53685 -28.31582,11.3273 -42.05,18.4758 -19.10767,9.94536 -25.91612,14.27208 -24.94102,15.84983 0.4269,0.69074 2.94196,2.62308 5.58903,4.29411 2.64708,1.67102 7.9675,6.99198 11.82317,11.82434 3.85567,4.83238 7.78143,8.78613 8.72392,8.78613 0.9425,0 3.42669,2.3294 5.52043,5.17644 2.09373,2.84705 6.50177,6.74002 9.79563,8.65106 3.29387,1.91105 11.05134,7.7255 17.23884,12.92101 6.1875,5.19552 12.05959,9.45878 13.04908,9.47394 0.9895,0.0151 5.20825,3.57583 9.375,7.91261 6.45843,6.72198 9.23536,8.55714 18.82592,12.44137 11.0159,4.4615 23.87028,7.13853 34.61444,7.20878 10.28007,0.0672 17.29712,5.40012 25.42339,19.32154 1.51368,2.59317 9.854,4.21063 22.26931,4.31874 8.33634,0.0726 15.81786,2.69118 15.81786,5.5364 0,2.57145 -9.16689,17.34016 -15.75635,25.38495 -20.94228,25.5675 -96.87155,102.87245 -105.2755,107.18287 -2.28626,1.17264 -7.32385,2.64752 -11.19464,3.27749 -6.22728,1.01353 -7.34136,0.86025 -9.67372,-1.33089 -1.44975,-1.36197 -4.187,-2.47631 -6.08277,-2.47631 -7.20844,0 -20.21208,-10.29255 -23.68882,-18.75 -5.13488,-12.49101 -3.78694,-18.72911 6.969,-32.25198 4.4523,-5.59763 6.62293,-9.49831 6.71744,-12.07146 0.0768,-2.09086 2.46742,-9.01374 5.3125,-15.38419 2.84507,-6.37043 5.17286,-12.06291 5.17286,-12.64992 0,-0.58703 -2.39394,-1.33715 -5.31986,-1.66695 -7.1405,-0.80484 -19.27585,-6.89681 -22.35632,-11.22291 -1.37173,-1.92643 -3.33107,-3.50259 -4.35408,-3.50259 -1.02301,0 -9.56284,-3.27836 -18.97739,-7.28525 -9.41454,-4.00689 -19.0861,-8.05983 -21.49235,-9.00654 -2.40625,-0.94671 -8.5119,-4.55897 -13.56813,-8.02726 -10.22259,-7.01211 -13.39202,-9.00643 -33.52021,-21.09213 -12.7356,-7.64692 -14.87879,-8.50813 -24.375,-9.79478 -16.86945,-2.28565 -16.0675,-2.4718 -18.22647,4.23087 -1.78173,5.5315 -1.74163,6.27301 0.64211,11.875 1.39838,3.2863 3.7903,10.47509 5.31538,15.97509 1.52508,5.5 3.25979,10.30814 3.85492,10.68475 1.02974,0.65166 1.82906,5.63066 4.81699,30.00512 1.79195,14.61812 1.68853,17.55439 -1.25642,35.67322 -2.93106,18.03346 -3.02187,17.73171 7.12547,23.67845 3.37807,1.97967 5.44136,4.0848 5.44136,5.55167 0,3.67171 -7.18084,30.88833 -10.79067,40.89851 -3.15522,8.74949 -3.18824,9.15115 -1.22595,14.91018 2.81407,8.2588 2.52667,13.3989 -1.21545,21.7375 -3.18763,7.103 -3.21237,7.3887 -1.79858,20.7813 2.76211,26.1651 3.54244,36.7237 2.92028,39.5147 -1.86597,8.3704 -3.18554,10.7053 -7.30352,12.923 -4.95425,2.668 -4.89966,2.3959 -2.48611,12.3916 2.35295,9.7447 2.42695,24.7364 0.14376,29.1246 -2.73081,5.2485 -7.09693,8.5291 -13.37658,10.0507 -7.59915,1.8414 -79.24828,8.5546 -102.67968,9.6207 -21.14926,0.9623 -19.60389,-0.4852 -16.08551,15.0661 4.47495,19.7793 12.60644,30.2233 29.43025,37.7998 4.07682,1.8359 13.07799,6.1506 20.00259,9.5881 15.17276,7.532 15.11245,7.3601 9.41846,26.8442 -5.3001,18.1363 -6.42339,19.1634 -21.55691,19.71 -11.16754,0.4034 -11.7661,0.2819 -19.48973,-3.9538 z m 38.3996,-133.4341 c 10.86536,-2.3185 13.73548,-3.4417 17.23965,-6.7465 4.17944,-3.9417 5.1369,-7.1376 3.10084,-10.3502 -0.87405,-1.3791 -1.82308,-1.2864 -5.29336,0.5169 -3.87458,2.0133 -21.77404,9.607 -32.35338,13.7256 -2.40625,0.9367 -6.40044,1.7279 -8.87597,1.758 -5.54067,0.068 -12.37403,2.3405 -12.37403,4.116 0,2.0376 23.4701,0.1993 38.55625,-3.0198 z m -74.24076,-58.4435 c 2.09524,-2.0088 10.1861,-7.0776 17.97972,-11.2641 17.13927,-9.2067 23.1199,-13.2426 32.18959,-21.7227 l 6.937,-6.486 -4.12019,-6.1888 c -3.80608,-5.7171 -4.14442,-7.0512 -4.43807,-17.5001 -0.38289,-13.62378 -3.23921,-34.20553 -5.81989,-41.9361 -3.53799,-10.59829 -7.92743,-68.80944 -6.56299,-87.03611 1.03749,-13.85916 -3.97463,-33.62796 -11.46056,-45.20268 -12.24382,-18.93138 -13.42427,-47.63267 -2.99321,-72.77648 10.04665,-24.21723 16.01906,-38.18279 17.42292,-40.74079 0.79418,-1.44709 5.09282,-5.0084 9.55254,-7.91403 7.583,-4.94052 8.03026,-5.48894 6.90035,-8.46082 -0.95986,-2.52464 -0.75285,-3.5234 1.00704,-4.85873 1.2184,-0.92447 2.53356,-1.69873 2.92259,-1.72061 0.38902,-0.0219 2.02662,-2.43037 3.63911,-5.35225 1.61247,-2.92187 10.03441,-12.36311 18.7154,-20.98054 l 15.78364,-15.66803 2.25181,-12.86574 c 1.2385,-7.07616 2.03522,-13.08234 1.7705,-13.34706 -0.26471,-0.26473 -3.83076,1.74556 -7.92455,4.4673 -5.03125,3.34501 -8.82918,4.94991 -11.72016,4.9526 -4.48699,0.004 -16.39567,4.13832 -26.97308,9.36381 -12.14264,5.99876 -19.32346,7.74195 -27.43491,6.65999 -8.04824,-1.07354 -9.38561,-0.36087 -9.42095,5.02038 -0.0127,1.94397 -3.55901,6.59488 -10.64414,13.95979 -5.9845,6.22083 -10.625,12.1178 -10.625,13.50184 0,3.02045 -8.02344,10.44376 -15.25617,14.11507 -2.95285,1.49886 -7.61883,4.25875 -10.36883,6.13309 -2.75,1.87434 -7.28837,4.56912 -10.08526,5.98842 -2.7969,1.41929 -11.12565,8.5121 -18.50833,15.76179 -7.38268,7.2497 -14.71868,13.89982 -16.30221,14.77803 -1.58354,0.87822 -5.24439,3.39017 -8.13522,5.58211 -2.89083,2.19194 -5.8632,4.18772 -6.60527,4.43507 -1.48292,0.49432 0.9755,9.70458 2.59038,9.70458 0.48686,0 0.91115,0.98437 0.94286,2.1875 0.0317,1.20312 7.9915,31.71875 17.6884,67.8125 16.21156,60.34262 34.35484,130.24751 42.17564,162.5 5.46475,22.5363 17.26292,70.4314 18.39804,74.6875 0.59591,2.2344 1.45213,4.0625 1.90272,4.0625 0.45058,0 2.53351,-1.6435 4.62874,-3.6522 z M 748.6628,889.375 c 9.04642,-12.1377 9.55065,-22.07758 0.55851,-11.01021 C 742.11861,887.10666 730,905.93592 730,908.22984 c 0,1.6927 13.5554,-12.00219 18.6628,-18.85484 z M 251.31142,645.3125 c 4.73505,-3.26563 8.62704,-6.45571 8.64888,-7.08907 0.0219,-0.63337 0.8614,-2.05956 1.8657,-3.16929 1.00431,-1.10974 4.33782,-7.06029 7.40784,-13.22343 3.07,-6.16314 7.57156,-13.12432 10.00347,-15.4693 l 4.42165,-4.2636 1.29553,3.40748 c 0.71252,1.8741 1.29551,3.96515 1.29551,4.64676 0,2.26317 7.12372,-2.92721 9.44816,-6.88398 3.67674,-6.25872 13.89185,-16.50075 29.18531,-29.2622 7.84217,-6.5438 16.28504,-13.91901 18.76194,-16.38935 3.98856,-3.97798 19.22955,-11.09181 30.96174,-14.45158 1.50269,-0.43033 2.90894,-1.56253 3.125,-2.51602 0.21607,-0.95347 4.29421,-5.00517 9.06255,-9.00376 6.22079,-5.21657 9.72689,-9.34897 12.41237,-14.62964 2.35167,-4.62426 5.49975,-8.57313 8.47035,-10.625 3.41679,-2.36005 4.74085,-4.18307 4.77514,-6.57462 0.0261,-1.82 2.05516,-7.2121 4.50904,-11.98244 l 4.4616,-8.67334 -7.96524,-17.39256 C 409.07708,452.20165 399.37181,433.40625 391.89071,420 371.4765,383.4174 372.33283,385.71476 364.40122,346.25 c -5.45858,-27.15995 -7.96328,-37.81206 -9.17622,-39.025 -1.66204,-1.66204 -24.87961,3.58445 -30.50593,6.89345 -2.93923,1.72865 -9.56282,6.90406 -14.71907,11.50092 -5.15625,4.59687 -11.52175,9.81253 -14.14556,11.59036 -4.45595,3.01924 -5.07422,3.12251 -9.375,1.56578 -2.53244,-0.91665 -8.71332,-2.38084 -13.73527,-3.25375 -7.71023,-1.34017 -9.80086,-1.30713 -13.4375,0.21234 -4.29995,1.79664 -4.30671,1.81261 -4.33412,10.22017 -0.0316,9.68747 -3.27308,18.33787 -7.35735,19.63417 -2.05621,0.65261 -2.6152,1.85729 -2.6152,5.63598 0,3.38757 -1.50164,7.32858 -5.08799,13.35328 -6.27064,10.53404 -10.35862,16.5321 -13.4929,19.7973 -1.31986,1.375 -3.88802,7.84375 -5.70704,14.375 -4.67541,16.78731 -5.2789,17.99995 -11.1155,22.33546 -9.92516,7.37257 -14.30703,12.07399 -19.37647,20.78954 l -5.08948,8.75 27.43469,87.96555 C 227.65439,606.9716 240,647.61223 240,648.90305 c 0,3.51705 1.86322,2.92561 11.31142,-3.59055 z"
       id="path3430"
       inkscape:connector-curvature="0" />
    <path
       style="fill:#aedcfe"
       d="m 364.375,1326.1953 c -2.75,-0.5669 -7.25,-1.8264 -10,-2.7988 l -5,-1.7681 -0.34195,-13.0016 -0.34195,-13.0018 5.34195,-2.1 c 9.39493,-3.6934 21.32169,-4.0274 37.6759,-1.0551 8.09022,1.4702 15.51535,2.9825 16.50027,3.3604 2.43541,0.9346 2.60114,25.6911 0.18542,27.6959 -4.05366,3.3643 -32.33102,5.0788 -44.01964,2.669 z m 32.03165,-62.9699 c -9.79913,-5.374 -12.25842,-7.5489 -15.3205,-13.5486 -1.81877,-3.5636 -24.83615,-87.0409 -24.83615,-90.0734 0,-0.3283 -4.74043,-0.7952 -10.53427,-1.0376 -12.52018,-0.5239 -16.34188,-2.6993 -19.94608,-11.3537 -2.82789,-6.7904 -2.10442,-12.5178 2.35388,-18.6349 6.37811,-8.7512 6.42172,-9.9201 0.56482,-15.1397 -2.89292,-2.5781 -4.76565,-4.6878 -4.16161,-4.6882 0.60405,-4e-4 2.4673,-5.9698 4.14056,-13.2655 2.82882,-12.334 4.39695,-15.8626 7.52586,-16.9347 0.68415,-0.2344 -18.17565,-71.5016 -42.16517,-159.33328 L 250.625,760.30664 l -12.5,-0.61101 c -11.6889,-0.57137 -12.98629,-0.9084 -19.99431,-5.19418 -10.90349,-6.66805 -17.85795,-13.97217 -22.5986,-23.73484 -5.44723,-11.21771 -6.60433,-18.61394 -3.68519,-23.55565 1.89451,-3.20716 1.99662,-4.63883 0.77407,-10.85297 -2.50727,-12.74425 2.73795,-37.60799 7.93374,-37.60799 1.06991,0 1.94529,-0.5625 1.94529,-1.25 0,-0.69306 3.30874,-1.25 7.42622,-1.25 4.08443,0 7.70682,-0.45399 8.04974,-1.00885 1.10475,-1.78753 -50.1297,-162.59936 -54.47457,-170.98175 -6.64884,-12.82735 -6.55144,-12.74704 -11.24788,-9.27481 l -4.00014,2.95742 -9.00633,-4.76003 c -7.4693,-3.94769 -10.1417,-6.27867 -15.65907,-13.65852 -3.659,-4.89415 -9.76003,-12.3259 -13.55785,-16.51498 -4.31368,-4.7581 -10.071645,-13.59486 -15.34262,-23.54634 -8.053149,-15.20417 -9.886075,-20.91933 -7.234638,-22.558 0.757922,-0.46843 0.70236,-1.8419 -0.150206,-3.71308 -1.010112,-2.21696 -0.856331,-5.77 0.606712,-14.01786 1.077879,-6.07651 3.428617,-23.14195 5.223863,-37.9232 1.878842,-15.46954 4.09699,-28.57104 5.226685,-30.87144 2.898454,-5.9021 7.385894,-7.12191 26.458124,-7.19212 l 16.69305,-0.0614 3.04363,-5.98714 c 3.39205,-6.67256 6.43954,-8.38792 14.90165,-8.38792 4.30733,0 5.54363,-0.45771 5.54363,-2.05243 0,-1.12882 2.25,-5.61503 5,-9.96936 2.95302,-4.67579 5,-9.4469 5,-11.65407 0,-2.35434 1.36199,-5.28837 3.68086,-7.92943 2.02448,-2.30574 4.9836,-6.68469 6.57584,-9.73099 2.05209,-3.92608 3.80096,-5.66458 6.00664,-5.971 1.71141,-0.23775 3.81915,-1.01336 4.68385,-1.72358 2.35658,-1.9356 25.72076,-13.46914 27.28523,-13.46914 0.74658,0 5.11135,-3.8884 9.69949,-8.64089 l 8.34208,-8.64087 13.4255,-1.43488 c 18.16971,-1.94191 23.42906,-3.24959 29.50387,-7.33575 2.8444,-1.91327 13.60914,-8.17176 23.92164,-13.90777 10.3125,-5.736 23.40221,-13.17744 29.08824,-16.53651 12.6691,-7.48442 26.69401,-14.739 28.51002,-14.74723 0.74154,-0.004 2.6058,-6.05297 4.14281,-13.4436 4.28294,-20.59427 9.9566,-39.15282 13.66173,-44.6875 1.84096,-2.75 3.71637,-5.84375 4.1676,-6.875 2.88321,-6.589494 20.04242,-25 23.30085,-25 0.7491,0 2.1228,-1.086205 3.05267,-2.41379 0.92988,-1.327584 7.57115,-5.310952 14.75838,-8.851929 l 13.0677,-6.43814 15.625,0.757074 c 8.59375,0.41639 24.37785,0.693142 35.07577,0.615006 23.33934,-0.170469 28.55672,0.955688 33.31209,7.190305 4.5583,5.976241 14.34321,22.540711 19.91903,33.720119 4.07176,8.163801 4.57392,10.36917 5.69247,24.999995 0.67473,8.8255 0.96852,20.91128 0.65287,26.8573 -0.4905,9.23942 -1.14733,11.81313 -4.51858,17.70547 -4.47014,7.81298 -8.88365,19.81823 -8.88365,24.1645 0,1.95833 2.99582,5.89263 9.13131,11.99181 5.02223,4.9925 11.43167,12.17103 14.24319,15.95228 2.81151,3.78125 7.74425,9.40625 10.96162,12.5 3.21738,3.09375 7.84972,8.33109 10.2941,11.63854 2.44439,3.30745 8.26499,9.22958 12.93469,13.1603 8.56739,7.21161 24.50248,28.30606 33.67353,44.57616 2.32516,4.125 7.35708,11.99086 11.18206,17.47969 3.82498,5.48883 8.13685,12.42877 9.58194,15.42208 l 2.62745,5.44239 17.37255,5.90518 c 9.55491,3.24783 20.5873,7.37717 24.51642,9.17628 9.07972,4.15753 23.47913,15.75298 28.89892,23.27152 5.52281,7.66143 15.83222,32.63139 15.83222,38.34649 0,2.47264 0.64951,5.70936 1.44338,7.19268 0.79385,1.48334 1.83253,6.67175 2.30819,11.52981 0.6289,6.42314 1.75812,10.1834 4.13914,13.78337 6.78063,10.25182 17.32268,36.14887 21.59752,53.05528 2.34397,9.27013 4.26177,18.08259 4.26177,19.58324 0,1.5348 1.50082,3.82175 3.43054,5.22745 3.26083,2.37535 3.42641,2.99293 3.34711,12.48469 -0.0607,7.27827 -0.67376,10.88667 -2.26071,13.30865 -3.10469,4.73835 -12.08068,10.06239 -22.09048,13.10276 l -8.62107,2.61858 0.72608,5.29745 c 0.98302,7.17182 -1.55559,27.0327 -4.65138,36.39031 -1.38873,4.19765 -4.38139,10.72585 -6.65036,14.5071 -2.26899,3.78125 -7.98049,14.46875 -12.69223,23.75 -16.81221,33.1169 -23.68206,41.37563 -39.1125,47.01979 -15.13706,5.53685 -28.31582,11.3273 -42.05,18.4758 -19.10767,9.94536 -25.91612,14.27208 -24.94102,15.84983 0.4269,0.69074 2.94196,2.62308 5.58903,4.29411 2.64708,1.67102 7.9675,6.99198 11.82317,11.82434 3.85567,4.83238 7.78143,8.78613 8.72392,8.78613 0.9425,0 3.42669,2.3294 5.52043,5.17644 2.09373,2.84705 6.50177,6.74002 9.79563,8.65106 3.29387,1.91105 11.05134,7.7255 17.23884,12.92101 6.1875,5.19552 12.05959,9.45878 13.04908,9.47394 0.9895,0.0151 5.20825,3.57583 9.375,7.91261 6.45843,6.72198 9.23536,8.55714 18.82592,12.44137 11.0159,4.4615 23.87028,7.13853 34.61444,7.20878 10.28007,0.0672 17.29712,5.40012 25.42339,19.32154 1.51368,2.59317 9.854,4.21063 22.26931,4.31874 8.33634,0.0726 15.81786,2.69118 15.81786,5.5364 0,2.57145 -9.16689,17.34016 -15.75635,25.38495 -20.94228,25.5675 -96.87155,102.87245 -105.2755,107.18287 -2.28626,1.17264 -7.32385,2.64752 -11.19464,3.27749 -6.22728,1.01353 -7.34136,0.86025 -9.67372,-1.33089 -1.44975,-1.36197 -4.187,-2.47631 -6.08277,-2.47631 -7.20844,0 -20.21208,-10.29255 -23.68882,-18.75 -5.13488,-12.49101 -3.78694,-18.72911 6.969,-32.25198 4.4523,-5.59763 6.62293,-9.49831 6.71744,-12.07146 0.0768,-2.09086 2.46742,-9.01374 5.3125,-15.38419 2.84507,-6.37043 5.17286,-12.06291 5.17286,-12.64992 0,-0.58703 -2.39394,-1.33715 -5.31986,-1.66695 -7.1405,-0.80484 -19.27585,-6.89681 -22.35632,-11.22291 -1.37173,-1.92643 -3.33107,-3.50259 -4.35408,-3.50259 -1.02301,0 -9.56284,-3.27836 -18.97739,-7.28525 -9.41454,-4.00689 -19.0861,-8.05983 -21.49235,-9.00654 -2.40625,-0.94671 -8.5119,-4.55897 -13.56813,-8.02726 -10.22259,-7.01211 -13.39202,-9.00643 -33.52021,-21.09213 -12.7356,-7.64692 -14.87879,-8.50813 -24.375,-9.79478 -16.86945,-2.28565 -16.0675,-2.4718 -18.22647,4.23087 -1.78173,5.5315 -1.74163,6.27301 0.64211,11.875 1.39838,3.2863 3.7903,10.47509 5.31538,15.97509 1.52508,5.5 3.25979,10.30814 3.85492,10.68475 1.02974,0.65166 1.82906,5.63066 4.81699,30.00512 1.79195,14.61812 1.68853,17.55439 -1.25642,35.67322 -2.93106,18.03346 -3.02187,17.73171 7.12547,23.67845 3.37807,1.97967 5.44136,4.0848 5.44136,5.55167 0,3.67171 -7.18084,30.88833 -10.79067,40.89851 -3.15522,8.74949 -3.18824,9.15115 -1.22595,14.9102 2.81407,8.2588 2.52667,13.3989 -1.21545,21.7375 -3.18763,7.103 -3.21237,7.3887 -1.79858,20.7813 2.76211,26.1651 3.54244,36.7237 2.92028,39.5147 -1.86597,8.3704 -3.18554,10.7053 -7.30352,12.923 -4.95425,2.668 -4.89966,2.3959 -2.48611,12.3916 2.35295,9.7447 2.42695,24.7364 0.14376,29.1246 -2.73081,5.2485 -7.09693,8.5291 -13.37658,10.0507 -7.59915,1.8414 -79.24828,8.5546 -102.67968,9.6207 -21.14926,0.9623 -19.60389,-0.4852 -16.08551,15.0661 4.47495,19.7793 12.60644,30.2233 29.43025,37.7998 4.07682,1.8359 13.07799,6.1506 20.00259,9.5881 15.17276,7.532 15.11245,7.3601 9.41846,26.8442 -5.3001,18.1363 -6.42339,19.1634 -21.55691,19.71 -11.16754,0.4034 -11.7661,0.2819 -19.48973,-3.9538 z m 38.3996,-133.4341 c 10.86536,-2.3185 13.73548,-3.4417 17.23965,-6.7465 4.17944,-3.9417 5.1369,-7.1376 3.10084,-10.3502 -0.87405,-1.3791 -1.82308,-1.2864 -5.29336,0.5169 -3.87458,2.0133 -21.77404,9.607 -32.35338,13.7256 -2.40625,0.9367 -6.40044,1.7279 -8.87597,1.758 -5.54067,0.068 -12.37403,2.3405 -12.37403,4.116 0,2.0376 23.4701,0.1993 38.55625,-3.0198 z m -74.24076,-58.4435 c 2.09524,-2.0088 10.1861,-7.0776 17.97972,-11.2641 17.13927,-9.2067 23.1199,-13.2426 32.18959,-21.7227 l 6.937,-6.486 -4.12019,-6.1888 c -3.80608,-5.7171 -4.14442,-7.0512 -4.43807,-17.5001 -0.38289,-13.62378 -3.23921,-34.20553 -5.81989,-41.9361 -3.53799,-10.59829 -7.92743,-68.80944 -6.56299,-87.03611 1.03749,-13.85916 -3.97463,-33.62796 -11.46056,-45.20268 -12.24382,-18.93138 -13.42427,-47.63267 -2.99321,-72.77648 10.04665,-24.21723 16.01906,-38.18279 17.42292,-40.74079 0.79418,-1.44709 5.09282,-5.0084 9.55254,-7.91403 7.583,-4.94052 8.03026,-5.48894 6.90035,-8.46082 -0.95986,-2.52464 -0.75285,-3.5234 1.00704,-4.85873 1.2184,-0.92447 2.53356,-1.69873 2.92259,-1.72061 0.38902,-0.0219 2.02662,-2.43037 3.63911,-5.35225 1.61247,-2.92187 10.03441,-12.36311 18.7154,-20.98054 l 15.78364,-15.66803 2.25181,-12.86574 c 1.2385,-7.07616 2.03522,-13.08234 1.7705,-13.34706 -0.26471,-0.26473 -3.83076,1.74556 -7.92455,4.4673 -5.03125,3.34501 -8.82918,4.94991 -11.72016,4.9526 -4.48699,0.004 -16.39567,4.13832 -26.97308,9.36381 -12.14264,5.99876 -19.32346,7.74195 -27.43491,6.65999 -8.04824,-1.07354 -9.38561,-0.36087 -9.42095,5.02038 -0.0127,1.94397 -3.55901,6.59488 -10.64414,13.95979 -5.9845,6.22083 -10.625,12.1178 -10.625,13.50184 0,3.02045 -8.02344,10.44376 -15.25617,14.11507 -2.95285,1.49886 -7.61883,4.25875 -10.36883,6.13309 -2.75,1.87434 -7.28837,4.56912 -10.08526,5.98842 -2.7969,1.41929 -11.12565,8.5121 -18.50833,15.76179 -7.38268,7.2497 -14.71868,13.89982 -16.30221,14.77803 -1.58354,0.87822 -5.24439,3.39017 -8.13522,5.58211 -2.89083,2.19194 -5.8632,4.18772 -6.60527,4.43507 -1.48292,0.49432 0.9755,9.70458 2.59038,9.70458 0.48686,0 0.91115,0.98437 0.94286,2.1875 0.0317,1.20312 7.9915,31.71875 17.6884,67.8125 16.21156,60.34262 34.35484,130.24751 42.17564,162.5 5.46475,22.5363 17.26292,70.4314 18.39804,74.6875 0.59591,2.2344 1.45213,4.0625 1.90272,4.0625 0.45058,0 2.53351,-1.6435 4.62874,-3.6522 z M 748.6628,889.375 c 9.04642,-12.1377 9.55065,-22.07758 0.55851,-11.01021 C 742.11861,887.10666 730,905.93592 730,908.22984 c 0,1.6927 13.5554,-12.00219 18.6628,-18.85484 z M 251.31142,645.3125 c 4.73505,-3.26563 8.62704,-6.45571 8.64888,-7.08907 0.0219,-0.63337 0.8614,-2.05956 1.8657,-3.16929 1.00431,-1.10974 4.33782,-7.06029 7.40784,-13.22343 3.07,-6.16314 7.57156,-13.12432 10.00347,-15.4693 l 4.42165,-4.2636 1.29553,3.40748 c 0.71252,1.8741 1.29551,3.96515 1.29551,4.64676 0,2.26317 7.12372,-2.92721 9.44816,-6.88398 3.67674,-6.25872 13.89185,-16.50075 29.18531,-29.2622 7.84217,-6.5438 16.28504,-13.91901 18.76194,-16.38935 3.98856,-3.97798 19.22955,-11.09181 30.96174,-14.45158 1.50269,-0.43033 2.90894,-1.56253 3.125,-2.51602 0.21607,-0.95347 4.29421,-5.00517 9.06255,-9.00376 6.22079,-5.21657 9.72689,-9.34897 12.41237,-14.62964 2.35167,-4.62426 5.49975,-8.57313 8.47035,-10.625 3.41679,-2.36005 4.74085,-4.18307 4.77514,-6.57462 0.0261,-1.82 2.05516,-7.2121 4.50904,-11.98244 l 4.4616,-8.67334 -7.96524,-17.39256 C 409.07708,452.20165 399.37181,433.40625 391.89071,420 371.4765,383.4174 372.33283,385.71476 364.40122,346.25 c -5.45858,-27.15995 -7.96328,-37.81206 -9.17622,-39.025 -1.66204,-1.66204 -24.87961,3.58445 -30.50593,6.89345 -2.93923,1.72865 -9.56282,6.90406 -14.71907,11.50092 -5.15625,4.59687 -11.52175,9.81253 -14.14556,11.59036 -4.45595,3.01924 -5.07422,3.12251 -9.375,1.56578 -2.53244,-0.91665 -8.71332,-2.38084 -13.73527,-3.25375 -7.71023,-1.34017 -9.80086,-1.30713 -13.4375,0.21234 -4.29995,1.79664 -4.30671,1.81261 -4.33412,10.22017 -0.0316,9.68747 -3.27308,18.33787 -7.35735,19.63417 -2.05621,0.65261 -2.6152,1.85729 -2.6152,5.63598 0,3.38757 -1.50164,7.32858 -5.08799,13.35328 -6.27064,10.53404 -10.35862,16.5321 -13.4929,19.7973 -1.31986,1.375 -3.88802,7.84375 -5.70704,14.375 -4.67541,16.78731 -5.2789,17.99995 -11.1155,22.33546 -9.92516,7.37257 -14.30703,12.07399 -19.37647,20.78954 l -5.08948,8.75 27.43469,87.96555 C 227.65439,606.9716 240,647.61223 240,648.90305 c 0,3.51705 1.86322,2.92561 11.31142,-3.59055 z"
       id="path3428"
       inkscape:connector-curvature="0" />
    <path
       style="fill:#8ccefe"
       d="m 364.375,1326.1953 c -2.75,-0.5669 -7.25,-1.8264 -10,-2.7988 l -5,-1.7681 -0.34195,-13.0016 -0.34195,-13.0018 5.34195,-2.1 c 9.39493,-3.6934 21.32169,-4.0274 37.6759,-1.0551 8.09022,1.4702 15.51535,2.9825 16.50027,3.3604 2.43541,0.9346 2.60114,25.6911 0.18542,27.6959 -4.05366,3.3643 -32.33102,5.0788 -44.01964,2.669 z m 32.03165,-62.9699 c -9.79913,-5.374 -12.25842,-7.5489 -15.3205,-13.5486 -1.81877,-3.5636 -24.83615,-87.0409 -24.83615,-90.0734 0,-0.3283 -4.74043,-0.7952 -10.53427,-1.0376 -12.52018,-0.5239 -16.34188,-2.6993 -19.94608,-11.3537 -2.82789,-6.7904 -2.10442,-12.5178 2.35388,-18.6349 6.37811,-8.7512 6.42172,-9.9201 0.56482,-15.1397 -2.89292,-2.5781 -4.76565,-4.6878 -4.16161,-4.6882 0.60405,-4e-4 2.4673,-5.9698 4.14056,-13.2655 2.82882,-12.334 4.39695,-15.8626 7.52586,-16.9347 0.68415,-0.2344 -18.17565,-71.5016 -42.16517,-159.33328 L 250.625,760.30664 l -12.5,-0.61101 c -11.6889,-0.57137 -12.98629,-0.9084 -19.99431,-5.19418 -10.90349,-6.66805 -17.85795,-13.97217 -22.5986,-23.73484 -5.44723,-11.21771 -6.60433,-18.61394 -3.68519,-23.55565 1.89451,-3.20716 1.99662,-4.63883 0.77407,-10.85297 -2.50727,-12.74425 2.73795,-37.60799 7.93374,-37.60799 1.06991,0 1.94529,-0.5625 1.94529,-1.25 0,-0.69306 3.30874,-1.25 7.42622,-1.25 4.08443,0 7.70682,-0.45399 8.04974,-1.00885 1.10475,-1.78753 -50.1297,-162.59936 -54.47457,-170.98175 -6.64884,-12.82735 -6.55144,-12.74704 -11.24788,-9.27481 l -4.00014,2.95742 -9.00633,-4.76003 c -7.4693,-3.94769 -10.1417,-6.27867 -15.65907,-13.65852 -3.659,-4.89415 -9.76003,-12.3259 -13.55785,-16.51498 -4.31368,-4.7581 -10.071645,-13.59486 -15.34262,-23.54634 -8.053149,-15.20417 -9.886075,-20.91933 -7.234638,-22.558 0.757922,-0.46843 0.70236,-1.8419 -0.150206,-3.71308 -1.010434,-2.21766 -0.855421,-5.76737 0.612148,-14.01786 1.080869,-6.07651 3.505629,-23.4232 5.388353,-38.5482 2.040935,-16.39598 4.159023,-28.66144 5.245615,-30.37639 3.737218,-5.8984 8.255368,-7.12361 26.269268,-7.12361 l 16.69305,0 3.04363,-5.98714 c 3.39205,-6.6725 6.43954,-8.38786 14.90165,-8.38786 4.30733,0 5.54363,-0.45771 5.54363,-2.05243 0,-1.12882 2.25,-5.61503 5,-9.96936 2.95302,-4.67579 5,-9.4469 5,-11.65407 0,-2.35434 1.36199,-5.28837 3.68086,-7.92943 2.02448,-2.30574 4.9836,-6.68469 6.57584,-9.73099 2.05209,-3.92608 3.80096,-5.66458 6.00664,-5.971 1.71141,-0.23775 3.81915,-1.01336 4.68385,-1.72358 2.35658,-1.9356 25.72076,-13.46914 27.28523,-13.46914 0.74658,0 5.11135,-3.8884 9.69949,-8.64089 l 8.34208,-8.64087 13.4255,-1.43488 c 18.16971,-1.94191 23.42906,-3.24959 29.50387,-7.33575 2.8444,-1.91327 13.60914,-8.17176 23.92164,-13.90777 10.3125,-5.736 23.40221,-13.17744 29.08824,-16.53651 12.6691,-7.48442 26.69401,-14.739 28.51002,-14.74723 0.74154,-0.004 2.61156,-6.05297 4.1556,-13.4436 6.53169,-31.26426 10.34125,-40.80206 24.35859,-60.98524 C 397.55067,75.806624 409.17699,65 410.99625,65 c 0.7491,0 2.1228,-1.086205 3.05268,-2.41379 0.92987,-1.327584 7.57115,-5.310953 14.75837,-8.851929 l 13.0677,-6.43814 15.625,0.757074 c 8.59375,0.41639 24.37785,0.693142 35.07577,0.615006 23.33934,-0.170469 28.55672,0.955688 33.31209,7.190305 4.5583,5.976241 14.34321,22.540711 19.91903,33.720119 4.07176,8.163801 4.57392,10.36917 5.69247,24.999995 0.67473,8.8255 0.96852,20.91128 0.65287,26.8573 -0.4905,9.23942 -1.14733,11.81313 -4.51858,17.70547 -4.47014,7.81298 -8.88365,19.81823 -8.88365,24.1645 0,1.95833 2.99582,5.89263 9.13131,11.99181 5.02223,4.9925 11.43167,12.17103 14.24319,15.95228 2.81151,3.78125 7.74425,9.40625 10.96162,12.5 3.21738,3.09375 7.84972,8.33109 10.2941,11.63854 2.44439,3.30745 8.26499,9.22958 12.93469,13.1603 8.56739,7.21161 24.50248,28.30606 33.67353,44.57616 2.32516,4.125 7.35708,11.99086 11.18206,17.47969 3.82498,5.48883 8.13685,12.42877 9.58194,15.42208 l 2.62745,5.44239 17.37255,5.90518 c 9.55491,3.24783 20.5873,7.37717 24.51642,9.17628 9.07972,4.15753 23.47913,15.75298 28.89892,23.27152 5.52281,7.66143 15.83222,32.63139 15.83222,38.34649 0,2.47264 0.64951,5.70936 1.44338,7.19268 0.79385,1.48334 1.83253,6.67175 2.30819,11.52981 0.6289,6.42314 1.75812,10.1834 4.13914,13.78337 6.78063,10.25182 17.32268,36.14887 21.59752,53.05528 2.34397,9.27013 4.26177,18.08259 4.26177,19.58324 0,1.5348 1.50082,3.82175 3.43054,5.22745 3.26083,2.37535 3.42641,2.99293 3.34711,12.48469 -0.0607,7.27827 -0.67376,10.88667 -2.26071,13.30865 -3.10469,4.73835 -12.08068,10.06239 -22.09048,13.10276 l -8.62107,2.61858 0.72608,5.29745 c 0.98302,7.17182 -1.55559,27.0327 -4.65138,36.39031 -1.38873,4.19765 -4.38139,10.72585 -6.65036,14.5071 -2.26899,3.78125 -7.98049,14.46875 -12.69223,23.75 -16.81221,33.1169 -23.68206,41.37563 -39.1125,47.01979 -15.13706,5.53685 -28.31582,11.3273 -42.05,18.4758 -19.10767,9.94536 -25.91612,14.27208 -24.94102,15.84983 0.4269,0.69074 2.94196,2.62308 5.58903,4.29411 2.64708,1.67102 7.9675,6.99198 11.82317,11.82434 3.85567,4.83238 7.78143,8.78613 8.72392,8.78613 0.9425,0 3.42669,2.3294 5.52043,5.17644 2.09373,2.84705 6.50177,6.74002 9.79563,8.65106 3.29387,1.91105 11.05134,7.7255 17.23884,12.92101 6.1875,5.19552 12.05959,9.45878 13.04908,9.47394 0.9895,0.0151 5.20825,3.57583 9.375,7.91261 6.45843,6.72198 9.23536,8.55714 18.82592,12.44137 11.0159,4.4615 23.87028,7.13853 34.61444,7.20878 10.28007,0.0672 17.29712,5.40012 25.42339,19.32154 1.51368,2.59317 9.854,4.21063 22.26931,4.31874 8.33634,0.0726 15.81786,2.69118 15.81786,5.5364 0,2.57145 -9.16689,17.34016 -15.75635,25.38495 -20.94228,25.5675 -96.87155,102.87245 -105.2755,107.18287 -2.28626,1.17264 -7.32385,2.64752 -11.19464,3.27749 -6.22728,1.01353 -7.34136,0.86025 -9.67372,-1.33089 -1.44975,-1.36197 -4.187,-2.47631 -6.08277,-2.47631 -7.20844,0 -20.21208,-10.29255 -23.68882,-18.75 -5.13488,-12.49101 -3.78694,-18.72911 6.969,-32.25198 4.4523,-5.59763 6.62293,-9.49831 6.71744,-12.07146 0.0768,-2.09086 2.46742,-9.01374 5.3125,-15.38419 2.84507,-6.37043 5.17286,-12.06291 5.17286,-12.64992 0,-0.58703 -2.39394,-1.33715 -5.31986,-1.66695 -7.1405,-0.80484 -19.27585,-6.89681 -22.35632,-11.22291 -1.37173,-1.92643 -3.33107,-3.50259 -4.35408,-3.50259 -1.02301,0 -9.56284,-3.27836 -18.97739,-7.28525 -9.41454,-4.00689 -19.0861,-8.05983 -21.49235,-9.00654 -2.40625,-0.94671 -8.5119,-4.55897 -13.56813,-8.02726 -10.22259,-7.01211 -13.39202,-9.00643 -33.52021,-21.09213 -12.7356,-7.64692 -14.87879,-8.50813 -24.375,-9.79478 -16.86945,-2.28565 -16.0675,-2.4718 -18.22647,4.23087 -1.78173,5.5315 -1.74163,6.27301 0.64211,11.875 1.39838,3.2863 3.7903,10.47509 5.31538,15.97509 1.52508,5.5 3.25979,10.30814 3.85492,10.68475 1.02974,0.65166 1.82906,5.63066 4.81699,30.00512 1.79195,14.61812 1.68853,17.55439 -1.25642,35.67322 -2.93106,18.03346 -3.02187,17.73171 7.12547,23.67845 3.37807,1.97967 5.44136,4.0848 5.44136,5.55167 0,3.67171 -7.18084,30.88833 -10.79067,40.89851 -3.15522,8.74949 -3.18824,9.15115 -1.22595,14.91018 2.81407,8.2588 2.52667,13.3989 -1.21545,21.7375 -3.18763,7.103 -3.21237,7.3887 -1.79858,20.7813 2.76211,26.1651 3.54244,36.7237 2.92028,39.5147 -1.86597,8.3704 -3.18554,10.7053 -7.30352,12.923 -4.95425,2.668 -4.89966,2.3959 -2.48611,12.3916 2.35295,9.7447 2.42695,24.7364 0.14376,29.1246 -2.73081,5.2485 -7.09693,8.5291 -13.37658,10.0507 -7.59915,1.8414 -79.24828,8.5546 -102.67968,9.6207 -21.14926,0.9623 -19.60389,-0.4852 -16.08551,15.0661 4.47495,19.7793 12.60644,30.2233 29.43025,37.7998 4.07682,1.8359 13.07799,6.1506 20.00259,9.5881 15.17276,7.532 15.11245,7.3601 9.41846,26.8442 -5.3001,18.1363 -6.42339,19.1634 -21.55691,19.71 -11.16754,0.4034 -11.7661,0.2819 -19.48973,-3.9538 z m 38.3996,-133.4341 c 10.86536,-2.3185 13.73548,-3.4417 17.23965,-6.7465 4.17944,-3.9417 5.1369,-7.1376 3.10084,-10.3502 -0.87405,-1.3791 -1.82308,-1.2864 -5.29336,0.5169 -3.87458,2.0133 -21.77404,9.607 -32.35338,13.7256 -2.40625,0.9367 -6.40044,1.7279 -8.87597,1.758 -5.54067,0.068 -12.37403,2.3405 -12.37403,4.116 0,2.0376 23.4701,0.1993 38.55625,-3.0198 z m -74.24076,-58.4435 c 2.09524,-2.0088 10.1861,-7.0776 17.97972,-11.2641 17.13927,-9.2067 23.1199,-13.2426 32.18959,-21.7227 l 6.937,-6.486 -4.12019,-6.1888 c -3.80608,-5.7171 -4.14442,-7.0512 -4.43807,-17.5001 -0.38289,-13.62378 -3.23921,-34.20553 -5.81989,-41.9361 -3.53799,-10.59829 -7.92743,-68.80944 -6.56299,-87.03611 1.03749,-13.85916 -3.97463,-33.62796 -11.46056,-45.20268 -12.24382,-18.93138 -13.42427,-47.63267 -2.99321,-72.77648 10.04665,-24.21723 16.01906,-38.18279 17.42292,-40.74079 0.79418,-1.44709 5.09282,-5.0084 9.55254,-7.91403 7.583,-4.94052 8.03026,-5.48894 6.90035,-8.46082 -0.95986,-2.52464 -0.75285,-3.5234 1.00704,-4.85873 1.2184,-0.92447 2.53356,-1.69873 2.92259,-1.72061 0.38902,-0.0219 2.02662,-2.43037 3.63911,-5.35225 1.61247,-2.92187 10.03441,-12.36311 18.7154,-20.98054 l 15.78364,-15.66803 2.25181,-12.86574 c 1.2385,-7.07616 2.03522,-13.08234 1.7705,-13.34706 -0.26471,-0.26473 -3.83076,1.74556 -7.92455,4.4673 -5.03125,3.34501 -8.82918,4.94991 -11.72016,4.9526 -4.48699,0.004 -16.39567,4.13832 -26.97308,9.36381 -12.14264,5.99876 -19.32346,7.74195 -27.43491,6.65999 -8.04824,-1.07354 -9.38561,-0.36087 -9.42095,5.02038 -0.0127,1.94397 -3.55901,6.59488 -10.64414,13.95979 -5.9845,6.22083 -10.625,12.1178 -10.625,13.50184 0,3.02045 -8.02344,10.44376 -15.25617,14.11507 -2.95285,1.49886 -7.61883,4.25875 -10.36883,6.13309 -2.75,1.87434 -7.28837,4.56912 -10.08526,5.98842 -2.7969,1.41929 -11.12565,8.5121 -18.50833,15.76179 -7.38268,7.2497 -14.71868,13.89982 -16.30221,14.77803 -1.58354,0.87822 -5.24439,3.39017 -8.13522,5.58211 -2.89083,2.19194 -5.8632,4.18772 -6.60527,4.43507 -1.48292,0.49432 0.9755,9.70458 2.59038,9.70458 0.48686,0 0.91115,0.98437 0.94286,2.1875 0.0317,1.20312 7.9915,31.71875 17.6884,67.8125 16.21156,60.34262 34.35484,130.24751 42.17564,162.5 5.46475,22.5363 17.26292,70.4314 18.39804,74.6875 0.59591,2.2344 1.45213,4.0625 1.90272,4.0625 0.45058,0 2.53351,-1.6435 4.62874,-3.6522 z M 748.6628,889.375 c 9.04642,-12.1377 9.55065,-22.07758 0.55851,-11.01021 C 742.11861,887.10666 730,905.93592 730,908.22984 c 0,1.6927 13.5554,-12.00219 18.6628,-18.85484 z M 251.31142,645.3125 c 4.73505,-3.26563 8.62704,-6.45571 8.64888,-7.08907 0.0219,-0.63337 0.8614,-2.05956 1.8657,-3.16929 1.00431,-1.10974 4.33782,-7.06029 7.40784,-13.22343 3.07,-6.16314 7.57156,-13.12432 10.00347,-15.4693 l 4.42165,-4.2636 1.29553,3.40748 c 0.71252,1.8741 1.29551,3.96515 1.29551,4.64676 0,2.26317 7.12372,-2.92721 9.44816,-6.88398 3.67674,-6.25872 13.89185,-16.50075 29.18531,-29.2622 7.84217,-6.5438 16.28504,-13.91901 18.76194,-16.38935 3.98856,-3.97798 19.22955,-11.09181 30.96174,-14.45158 1.50269,-0.43033 2.90894,-1.56253 3.125,-2.51602 0.21607,-0.95347 4.29421,-5.00517 9.06255,-9.00376 6.22079,-5.21657 9.72689,-9.34897 12.41237,-14.62964 2.35167,-4.62426 5.49975,-8.57313 8.47035,-10.625 3.41679,-2.36005 4.74085,-4.18307 4.77514,-6.57462 0.0261,-1.82 2.05516,-7.2121 4.50904,-11.98244 l 4.4616,-8.67334 -7.96524,-17.39256 C 409.07708,452.20165 399.37181,433.40625 391.89071,420 371.4765,383.4174 372.33283,385.71476 364.40122,346.25 c -5.45858,-27.15995 -7.96328,-37.81206 -9.17622,-39.025 -1.66204,-1.66204 -24.87961,3.58445 -30.50593,6.89345 -2.93923,1.72865 -9.56282,6.90406 -14.71907,11.50092 -5.15625,4.59687 -11.52175,9.81253 -14.14556,11.59036 -4.45595,3.01924 -5.07422,3.12251 -9.375,1.56578 -2.53244,-0.91665 -8.71332,-2.38084 -13.73527,-3.25375 -7.71023,-1.34017 -9.80086,-1.30713 -13.4375,0.21234 -4.29995,1.79664 -4.30671,1.81261 -4.33412,10.22017 -0.0316,9.68747 -3.27308,18.33787 -7.35735,19.63417 -2.05621,0.65261 -2.6152,1.85729 -2.6152,5.63598 0,3.38757 -1.50164,7.32858 -5.08799,13.35328 -6.27064,10.53404 -10.35862,16.5321 -13.4929,19.7973 -1.31986,1.375 -3.88802,7.84375 -5.70704,14.375 -4.67541,16.78731 -5.2789,17.99995 -11.1155,22.33546 -9.92516,7.37257 -14.30703,12.07399 -19.37647,20.78954 l -5.08948,8.75 27.43469,87.96555 C 227.65439,606.9716 240,647.61223 240,648.90305 c 0,3.51705 1.86322,2.92561 11.31142,-3.59055 z"
       id="path3426"
       inkscape:connector-curvature="0" />
    <path
       style="fill:#6bc0fe"
       d="m 364.375,1326.1953 c -2.75,-0.5669 -7.25,-1.8264 -10,-2.7988 l -5,-1.7681 -0.34195,-13.0016 -0.34195,-13.0018 5.34195,-2.1 c 9.39493,-3.6934 21.32169,-4.0274 37.6759,-1.0551 8.09022,1.4702 15.51535,2.9825 16.50027,3.3604 2.43541,0.9346 2.60114,25.6911 0.18542,27.6959 -4.05366,3.3643 -32.33102,5.0788 -44.01964,2.669 z m 32.03165,-62.9699 c -9.79913,-5.374 -12.25842,-7.5489 -15.3205,-13.5486 -1.81877,-3.5636 -24.83615,-87.0409 -24.83615,-90.0734 0,-0.3283 -4.74043,-0.7952 -10.53427,-1.0376 -12.52018,-0.5239 -16.34188,-2.6993 -19.94608,-11.3537 -2.82789,-6.7904 -2.10442,-12.5178 2.35388,-18.6349 6.37811,-8.7512 6.42172,-9.9201 0.56482,-15.1397 -2.89292,-2.5781 -4.76565,-4.6878 -4.16161,-4.6882 0.60405,-4e-4 2.4673,-5.9698 4.14056,-13.2655 2.82882,-12.334 4.39695,-15.8626 7.52586,-16.9347 0.68415,-0.2344 -18.17565,-71.5016 -42.16517,-159.33328 L 250.625,760.30664 l -12.5,-0.61101 c -11.6889,-0.57137 -12.98629,-0.9084 -19.99431,-5.19418 -10.90349,-6.66805 -17.85795,-13.97217 -22.5986,-23.73484 -5.44723,-11.21771 -6.60433,-18.61394 -3.68519,-23.55565 1.89451,-3.20716 1.99662,-4.63883 0.77407,-10.85297 -2.50727,-12.74425 2.73795,-37.60799 7.93374,-37.60799 1.06991,0 1.94529,-0.5625 1.94529,-1.25 0,-0.69306 3.30874,-1.25 7.42622,-1.25 4.08443,0 7.70682,-0.45399 8.04974,-1.00885 1.10475,-1.78753 -50.1297,-162.59936 -54.47457,-170.98175 -6.64884,-12.82735 -6.55144,-12.74704 -11.24788,-9.27481 l -4.00014,2.95742 -9.00633,-4.76003 c -7.4693,-3.94769 -10.1417,-6.27867 -15.65907,-13.65852 -3.659,-4.89415 -9.76003,-12.3259 -13.55785,-16.51498 -4.31368,-4.7581 -10.071645,-13.59486 -15.34262,-23.54634 -8.053149,-15.20417 -9.886075,-20.91933 -7.234638,-22.558 0.757922,-0.46843 0.70236,-1.8419 -0.150206,-3.71308 -1.009865,-2.21641 -0.857031,-5.77202 0.602541,-14.01786 1.075585,-6.07651 3.415285,-22.8607 5.199333,-37.2982 1.784047,-14.4375 4.044144,-28.0527 5.022436,-30.25601 3.103684,-6.99012 7.738404,-8.46244 26.691564,-8.47922 l 16.69352,-0.0147 3.04316,-5.98713 c 3.39154,-6.67258 6.43883,-8.38789 14.90116,-8.38789 4.30733,0 5.54363,-0.45771 5.54363,-2.05243 0,-1.12882 2.25,-5.61503 5,-9.96936 2.95302,-4.67579 5,-9.4469 5,-11.65407 0,-2.35434 1.36199,-5.28837 3.68086,-7.92943 2.02448,-2.30574 4.9836,-6.68469 6.57584,-9.73099 2.05209,-3.92608 3.80096,-5.66458 6.00664,-5.971 1.71141,-0.23775 3.81915,-1.01336 4.68385,-1.72358 2.35658,-1.9356 25.72076,-13.46914 27.28523,-13.46914 0.74658,0 5.11135,-3.8884 9.69949,-8.64089 l 8.34208,-8.64087 13.4255,-1.43488 c 18.16971,-1.94191 23.42906,-3.24959 29.50387,-7.33575 2.8444,-1.91327 13.60914,-8.17176 23.92164,-13.90777 10.3125,-5.736 23.40221,-13.17744 29.08824,-16.53651 12.65351,-7.4752 26.69335,-14.73899 28.50422,-14.74723 0.73835,-0.004 2.79046,-6.61547 4.56024,-14.6936 6.23564,-28.46252 9.88712,-38.58501 18.61189,-51.594999 C 396.46505,77.4213 408.04273,65 410.99625,65 c 0.7491,0 2.1228,-1.086205 3.05268,-2.41379 0.92987,-1.327584 7.57115,-5.310953 14.75837,-8.851929 l 13.0677,-6.43814 15.625,0.757074 c 8.59375,0.41639 24.37785,0.693142 35.07577,0.615006 23.33934,-0.170469 28.55672,0.955688 33.31209,7.190305 4.5583,5.976241 14.34321,22.540711 19.91903,33.720119 4.07176,8.163801 4.57392,10.36917 5.69247,24.999995 0.67473,8.8255 0.96852,20.91128 0.65287,26.8573 -0.4905,9.23942 -1.14733,11.81313 -4.51858,17.70547 -4.47014,7.81298 -8.88365,19.81823 -8.88365,24.1645 0,1.95833 2.99582,5.89263 9.13131,11.99181 5.02223,4.9925 11.43167,12.17103 14.24319,15.95228 2.81151,3.78125 7.74425,9.40625 10.96162,12.5 3.21738,3.09375 7.84972,8.33109 10.2941,11.63854 2.44439,3.30745 8.26499,9.22958 12.93469,13.1603 8.56739,7.21161 24.50248,28.30606 33.67353,44.57616 2.32516,4.125 7.35708,11.99086 11.18206,17.47969 3.82498,5.48883 8.13685,12.42877 9.58194,15.42208 l 2.62745,5.44239 17.37255,5.90518 c 9.55491,3.24783 20.5873,7.37717 24.51642,9.17628 9.07972,4.15753 23.47913,15.75298 28.89892,23.27152 5.52281,7.66143 15.83222,32.63139 15.83222,38.34649 0,2.47264 0.64951,5.70936 1.44338,7.19268 0.79385,1.48334 1.83253,6.67175 2.30819,11.52981 0.6289,6.42314 1.75812,10.1834 4.13914,13.78337 6.78063,10.25182 17.32268,36.14887 21.59752,53.05528 2.34397,9.27013 4.26177,18.08259 4.26177,19.58324 0,1.5348 1.50082,3.82175 3.43054,5.22745 3.26083,2.37535 3.42641,2.99293 3.34711,12.48469 -0.0607,7.27827 -0.67376,10.88667 -2.26071,13.30865 -3.10469,4.73835 -12.08068,10.06239 -22.09048,13.10276 l -8.62107,2.61858 0.72608,5.29745 c 0.98302,7.17182 -1.55559,27.0327 -4.65138,36.39031 -1.38873,4.19765 -4.38139,10.72585 -6.65036,14.5071 -2.26899,3.78125 -7.98049,14.46875 -12.69223,23.75 -16.81221,33.1169 -23.68206,41.37563 -39.1125,47.01979 -15.13706,5.53685 -28.31582,11.3273 -42.05,18.4758 -19.10767,9.94536 -25.91612,14.27208 -24.94102,15.84983 0.4269,0.69074 2.94196,2.62308 5.58903,4.29411 2.64708,1.67102 7.9675,6.99198 11.82317,11.82434 3.85567,4.83238 7.78143,8.78613 8.72392,8.78613 0.9425,0 3.42669,2.3294 5.52043,5.17644 2.09373,2.84705 6.50177,6.74002 9.79563,8.65106 3.29387,1.91105 11.05134,7.7255 17.23884,12.92101 6.1875,5.19552 12.05959,9.45878 13.04908,9.47394 0.9895,0.0151 5.20825,3.57583 9.375,7.91261 6.45843,6.72198 9.23536,8.55714 18.82592,12.44137 11.0159,4.4615 23.87028,7.13853 34.61444,7.20878 10.28007,0.0672 17.29712,5.40012 25.42339,19.32154 1.51368,2.59317 9.854,4.21063 22.26931,4.31874 8.33634,0.0726 15.81786,2.69118 15.81786,5.5364 0,2.57145 -9.16689,17.34016 -15.75635,25.38495 -20.94228,25.5675 -96.87155,102.87245 -105.2755,107.18287 -2.28626,1.17264 -7.32385,2.64752 -11.19464,3.27749 -6.22728,1.01353 -7.34136,0.86025 -9.67372,-1.33089 -1.44975,-1.36197 -4.187,-2.47631 -6.08277,-2.47631 -7.20844,0 -20.21208,-10.29255 -23.68882,-18.75 -5.13488,-12.49101 -3.78694,-18.72911 6.969,-32.25198 4.4523,-5.59763 6.62293,-9.49831 6.71744,-12.07146 0.0768,-2.09086 2.46742,-9.01374 5.3125,-15.38419 2.84507,-6.37043 5.17286,-12.06291 5.17286,-12.64992 0,-0.58703 -2.39394,-1.33715 -5.31986,-1.66695 -7.1405,-0.80484 -19.27585,-6.89681 -22.35632,-11.22291 -1.37173,-1.92643 -3.33107,-3.50259 -4.35408,-3.50259 -1.02301,0 -9.56284,-3.27836 -18.97739,-7.28525 -9.41454,-4.00689 -19.0861,-8.05983 -21.49235,-9.00654 -2.40625,-0.94671 -8.5119,-4.55897 -13.56813,-8.02726 -10.22259,-7.01211 -13.39202,-9.00643 -33.52021,-21.09213 -12.7356,-7.64692 -14.87879,-8.50813 -24.375,-9.79478 -16.86945,-2.28565 -16.0675,-2.4718 -18.22647,4.23087 -1.78173,5.5315 -1.74163,6.27301 0.64211,11.875 1.39838,3.2863 3.7903,10.47509 5.31538,15.97509 1.52508,5.5 3.25979,10.30814 3.85492,10.68475 1.02974,0.65166 1.82906,5.63066 4.81699,30.00512 1.79195,14.61812 1.68853,17.55439 -1.25642,35.67322 -2.93106,18.03346 -3.02187,17.73171 7.12547,23.67845 3.37807,1.97967 5.44136,4.0848 5.44136,5.55167 0,3.67171 -7.18084,30.88833 -10.79067,40.89851 -3.15522,8.74949 -3.18824,9.15115 -1.22595,14.91018 2.81407,8.2588 2.52667,13.3989 -1.21545,21.7375 -3.18763,7.103 -3.21237,7.3887 -1.79858,20.7813 2.76211,26.1651 3.54244,36.7237 2.92028,39.5147 -1.86597,8.3704 -3.18554,10.7053 -7.30352,12.923 -4.95425,2.668 -4.89966,2.3959 -2.48611,12.3916 2.35295,9.7447 2.42695,24.7364 0.14376,29.1246 -2.73081,5.2485 -7.09693,8.5291 -13.37658,10.0507 -7.59915,1.8414 -79.24828,8.5546 -102.67968,9.6207 -21.14926,0.9623 -19.60389,-0.4852 -16.08551,15.0661 4.47495,19.7793 12.60644,30.2233 29.43025,37.7998 4.07682,1.8359 13.07799,6.1506 20.00259,9.5881 15.17276,7.532 15.11245,7.3601 9.41846,26.8442 -5.3001,18.1363 -6.42339,19.1634 -21.55691,19.71 -11.16754,0.4034 -11.7661,0.2819 -19.48973,-3.9538 z m 38.3996,-133.4341 c 10.86536,-2.3185 13.73548,-3.4417 17.23965,-6.7465 4.17944,-3.9417 5.1369,-7.1376 3.10084,-10.3502 -0.87405,-1.3791 -1.82308,-1.2864 -5.29336,0.5169 -3.87458,2.0133 -21.77404,9.607 -32.35338,13.7256 -2.40625,0.9367 -6.40044,1.7279 -8.87597,1.758 -5.54067,0.068 -12.37403,2.3405 -12.37403,4.116 0,2.0376 23.4701,0.1993 38.55625,-3.0198 z m -74.24076,-58.4435 c 2.09524,-2.0088 10.1861,-7.0776 17.97972,-11.2641 17.13927,-9.2067 23.1199,-13.2426 32.18959,-21.7227 l 6.937,-6.486 -4.12019,-6.1888 c -3.80608,-5.7171 -4.14442,-7.0512 -4.43807,-17.5001 -0.38289,-13.62378 -3.23921,-34.20553 -5.81989,-41.9361 -3.53799,-10.59829 -7.92743,-68.80944 -6.56299,-87.03611 1.03749,-13.85916 -3.97463,-33.62796 -11.46056,-45.20268 -12.24382,-18.93138 -13.42427,-47.63267 -2.99321,-72.77648 10.04665,-24.21723 16.01906,-38.18279 17.42292,-40.74079 0.79418,-1.44709 5.09282,-5.0084 9.55254,-7.91403 7.583,-4.94052 8.03026,-5.48894 6.90035,-8.46082 -0.95986,-2.52464 -0.75285,-3.5234 1.00704,-4.85873 1.2184,-0.92447 2.53356,-1.69873 2.92259,-1.72061 0.38902,-0.0219 2.02662,-2.43037 3.63911,-5.35225 1.61247,-2.92187 10.03441,-12.36311 18.7154,-20.98054 l 15.78364,-15.66803 2.25181,-12.86574 c 1.2385,-7.07616 2.03522,-13.08234 1.7705,-13.34706 -0.26471,-0.26473 -3.83076,1.74556 -7.92455,4.4673 -5.03125,3.34501 -8.82918,4.94991 -11.72016,4.9526 -4.48699,0.004 -16.39567,4.13832 -26.97308,9.36381 -12.14264,5.99876 -19.32346,7.74195 -27.43491,6.65999 -8.04824,-1.07354 -9.38561,-0.36087 -9.42095,5.02038 -0.0127,1.94397 -3.55901,6.59488 -10.64414,13.95979 -5.9845,6.22083 -10.625,12.1178 -10.625,13.50184 0,3.02045 -8.02344,10.44376 -15.25617,14.11507 -2.95285,1.49886 -7.61883,4.25875 -10.36883,6.13309 -2.75,1.87434 -7.28837,4.56912 -10.08526,5.98842 -2.7969,1.41929 -11.12565,8.5121 -18.50833,15.76179 -7.38268,7.2497 -14.71868,13.89982 -16.30221,14.77803 -1.58354,0.87822 -5.24439,3.39017 -8.13522,5.58211 -2.89083,2.19194 -5.8632,4.18772 -6.60527,4.43507 -1.48292,0.49432 0.9755,9.70458 2.59038,9.70458 0.48686,0 0.91115,0.98437 0.94286,2.1875 0.0317,1.20312 7.9915,31.71875 17.6884,67.8125 16.21156,60.34262 34.35484,130.24751 42.17564,162.5 5.46475,22.5363 17.26292,70.4314 18.39804,74.6875 0.59591,2.2344 1.45213,4.0625 1.90272,4.0625 0.45058,0 2.53351,-1.6435 4.62874,-3.6522 z M 748.6628,889.375 c 9.04642,-12.1377 9.55065,-22.07758 0.55851,-11.01021 C 742.11861,887.10666 730,905.93592 730,908.22984 c 0,1.6927 13.5554,-12.00219 18.6628,-18.85484 z M 251.31142,645.3125 c 4.73505,-3.26563 8.62704,-6.45571 8.64888,-7.08907 0.0219,-0.63337 0.8614,-2.05956 1.8657,-3.16929 1.00431,-1.10974 4.33782,-7.06029 7.40784,-13.22343 3.07,-6.16314 7.57156,-13.12432 10.00347,-15.4693 l 4.42165,-4.2636 1.29553,3.40748 c 0.71252,1.8741 1.29551,3.96515 1.29551,4.64676 0,2.26317 7.12372,-2.92721 9.44816,-6.88398 3.67674,-6.25872 13.89185,-16.50075 29.18531,-29.2622 7.84217,-6.5438 16.28504,-13.91901 18.76194,-16.38935 3.98856,-3.97798 19.22955,-11.09181 30.96174,-14.45158 1.50269,-0.43033 2.90894,-1.56253 3.125,-2.51602 0.21607,-0.95347 4.29421,-5.00517 9.06255,-9.00376 6.22079,-5.21657 9.72689,-9.34897 12.41237,-14.62964 2.35167,-4.62426 5.49975,-8.57313 8.47035,-10.625 3.41679,-2.36005 4.74085,-4.18307 4.77514,-6.57462 0.0261,-1.82 2.05516,-7.2121 4.50904,-11.98244 l 4.4616,-8.67334 -7.96524,-17.39256 C 409.07708,452.20165 399.37181,433.40625 391.89071,420 371.4765,383.4174 372.33283,385.71476 364.40122,346.25 c -5.45858,-27.15995 -7.96328,-37.81206 -9.17622,-39.025 -1.66204,-1.66204 -24.87961,3.58445 -30.50593,6.89345 -2.93923,1.72865 -9.56282,6.90406 -14.71907,11.50092 -5.15625,4.59687 -11.52175,9.81253 -14.14556,11.59036 -4.45595,3.01924 -5.07422,3.12251 -9.375,1.56578 -2.53244,-0.91665 -8.71332,-2.38084 -13.73527,-3.25375 -7.71023,-1.34017 -9.80086,-1.30713 -13.4375,0.21234 -4.29995,1.79664 -4.30671,1.81261 -4.33412,10.22017 -0.0316,9.68747 -3.27308,18.33787 -7.35735,19.63417 -2.05621,0.65261 -2.6152,1.85729 -2.6152,5.63598 0,3.38757 -1.50164,7.32858 -5.08799,13.35328 -6.27064,10.53404 -10.35862,16.5321 -13.4929,19.7973 -1.31986,1.375 -3.88802,7.84375 -5.70704,14.375 -4.67541,16.78731 -5.2789,17.99995 -11.1155,22.33546 -9.92516,7.37257 -14.30703,12.07399 -19.37647,20.78954 l -5.08948,8.75 27.43469,87.96555 C 227.65439,606.9716 240,647.61223 240,648.90305 c 0,3.51705 1.86322,2.92561 11.31142,-3.59055 z"
       id="path3424"
       inkscape:connector-curvature="0" />
    <path
       style="fill:#4eb5fe"
       d="m 364.375,1326.1953 c -2.75,-0.5669 -7.25,-1.8264 -10,-2.7988 l -5,-1.7681 -0.34195,-13.0016 -0.34195,-13.0018 5.34195,-2.1 c 9.39493,-3.6934 21.32169,-4.0274 37.6759,-1.0551 8.09022,1.4702 15.51535,2.9825 16.50027,3.3604 2.43541,0.9346 2.60114,25.6911 0.18542,27.6959 -4.05366,3.3643 -32.33102,5.0788 -44.01964,2.669 z m 32.03165,-62.9699 c -9.79913,-5.374 -12.25842,-7.5489 -15.3205,-13.5486 -1.81877,-3.5636 -24.83615,-87.0409 -24.83615,-90.0734 0,-0.3283 -4.74043,-0.7952 -10.53427,-1.0376 -12.52018,-0.5239 -16.34188,-2.6993 -19.94608,-11.3537 -2.82789,-6.7904 -2.10442,-12.5178 2.35388,-18.6349 6.37811,-8.7512 6.42172,-9.9201 0.56482,-15.1397 -2.89292,-2.5781 -4.76565,-4.6878 -4.16161,-4.6882 0.60405,-4e-4 2.4673,-5.9698 4.14056,-13.2655 2.82882,-12.334 4.39695,-15.8626 7.52586,-16.9347 0.68415,-0.2344 -18.17565,-71.5016 -42.16517,-159.33328 L 250.625,760.30664 l -12.5,-0.61101 c -11.6889,-0.57137 -12.98629,-0.9084 -19.99431,-5.19418 -10.90349,-6.66805 -17.85795,-13.97217 -22.5986,-23.73484 -5.44723,-11.21771 -6.60433,-18.61394 -3.68519,-23.55565 1.89451,-3.20716 1.99662,-4.63883 0.77407,-10.85297 -2.50727,-12.74425 2.73795,-37.60799 7.93374,-37.60799 1.06991,0 1.94529,-0.5625 1.94529,-1.25 0,-0.69306 3.30874,-1.25 7.42622,-1.25 4.08443,0 7.70682,-0.45399 8.04974,-1.00885 1.10475,-1.78753 -50.1297,-162.59936 -54.47457,-170.98175 -6.64884,-12.82735 -6.55144,-12.74704 -11.24788,-9.27481 l -4.00014,2.95742 -9.00633,-4.76003 c -7.4693,-3.94769 -10.1417,-6.27867 -15.65907,-13.65852 -3.659,-4.89415 -9.76003,-12.3259 -13.55785,-16.51498 -4.31368,-4.7581 -10.071645,-13.59486 -15.34262,-23.54634 -8.053149,-15.20417 -9.886075,-20.91933 -7.234638,-22.558 0.757922,-0.46843 0.70236,-1.8419 -0.150206,-3.71308 -1.009865,-2.21641 -0.857031,-5.77202 0.602541,-14.01786 1.075585,-6.07651 3.415285,-22.8607 5.199333,-37.2982 1.784047,-14.4375 4.071094,-28.10922 5.082325,-30.3816 2.940755,-6.6083 8.377085,-8.26819 27.256595,-8.32233 l 16.06846,-0.0461 3.04323,-5.98714 c 3.39161,-6.67249 6.43893,-8.38781 14.90123,-8.38781 4.30733,0 5.54363,-0.45771 5.54363,-2.05243 0,-1.12882 2.25,-5.61503 5,-9.96936 2.95302,-4.67579 5,-9.4469 5,-11.65407 0,-2.35434 1.36199,-5.28837 3.68086,-7.92943 2.02448,-2.30574 4.9836,-6.68469 6.57584,-9.73099 2.05209,-3.92608 3.80096,-5.66458 6.00664,-5.971 1.71141,-0.23775 3.81915,-1.01336 4.68385,-1.72358 2.35658,-1.9356 25.72076,-13.46914 27.28523,-13.46914 0.74658,0 5.11135,-3.8884 9.69949,-8.64089 l 8.34208,-8.64087 13.4255,-1.43488 c 18.16971,-1.94191 23.42906,-3.24959 29.50387,-7.33575 2.8444,-1.91327 13.60914,-8.17176 23.92164,-13.90777 10.3125,-5.736 23.40221,-13.17744 29.08824,-16.53651 12.65351,-7.4752 26.69335,-14.73899 28.50422,-14.74723 0.73835,-0.004 2.81106,-6.61547 4.60603,-14.6936 6.43778,-28.97288 9.95371,-38.73285 18.60288,-51.640411 C 396.46845,77.41671 408.04475,65 410.99625,65 c 0.7491,0 2.1228,-1.086205 3.05268,-2.41379 0.92987,-1.327584 7.57115,-5.310953 14.75837,-8.851929 l 13.0677,-6.43814 15.625,0.757074 c 8.59375,0.41639 24.37785,0.693142 35.07577,0.615006 23.33934,-0.170469 28.55672,0.955688 33.31209,7.190305 4.5583,5.976241 14.34321,22.540711 19.91903,33.720119 4.07176,8.163801 4.57392,10.36917 5.69247,24.999995 0.67473,8.8255 0.96852,20.91128 0.65287,26.8573 -0.4905,9.23942 -1.14733,11.81313 -4.51858,17.70547 -4.47014,7.81298 -8.88365,19.81823 -8.88365,24.1645 0,1.95833 2.99582,5.89263 9.13131,11.99181 5.02223,4.9925 11.43167,12.17103 14.24319,15.95228 2.81151,3.78125 7.74425,9.40625 10.96162,12.5 3.21738,3.09375 7.84972,8.33109 10.2941,11.63854 2.44439,3.30745 8.26499,9.22958 12.93469,13.1603 8.56739,7.21161 24.50248,28.30606 33.67353,44.57616 2.32516,4.125 7.35708,11.99086 11.18206,17.47969 3.82498,5.48883 8.13685,12.42877 9.58194,15.42208 l 2.62745,5.44239 17.37255,5.90518 c 9.55491,3.24783 20.5873,7.37717 24.51642,9.17628 9.07972,4.15753 23.47913,15.75298 28.89892,23.27152 5.52281,7.66143 15.83222,32.63139 15.83222,38.34649 0,2.47264 0.64951,5.70936 1.44338,7.19268 0.79385,1.48334 1.83253,6.67175 2.30819,11.52981 0.6289,6.42314 1.75812,10.1834 4.13914,13.78337 6.78063,10.25182 17.32268,36.14887 21.59752,53.05528 2.34397,9.27013 4.26177,18.08259 4.26177,19.58324 0,1.5348 1.50082,3.82175 3.43054,5.22745 3.26083,2.37535 3.42641,2.99293 3.34711,12.48469 -0.0607,7.27827 -0.67376,10.88667 -2.26071,13.30865 -3.10469,4.73835 -12.08068,10.06239 -22.09048,13.10276 l -8.62107,2.61858 0.72608,5.29745 c 0.98302,7.17182 -1.55559,27.0327 -4.65138,36.39031 -1.38873,4.19765 -4.38139,10.72585 -6.65036,14.5071 -2.26899,3.78125 -7.98049,14.46875 -12.69223,23.75 -16.81221,33.1169 -23.68206,41.37563 -39.1125,47.01979 -15.13706,5.53685 -28.31582,11.3273 -42.05,18.4758 -19.10767,9.94536 -25.91612,14.27208 -24.94102,15.84983 0.4269,0.69074 2.94196,2.62308 5.58903,4.29411 2.64708,1.67102 7.9675,6.99198 11.82317,11.82434 3.85567,4.83238 7.78143,8.78613 8.72392,8.78613 0.9425,0 3.42669,2.3294 5.52043,5.17644 2.09373,2.84705 6.50177,6.74002 9.79563,8.65106 3.29387,1.91105 11.05134,7.7255 17.23884,12.92101 6.1875,5.19552 12.05959,9.45878 13.04908,9.47394 0.9895,0.0151 5.20825,3.57583 9.375,7.91261 6.45843,6.72198 9.23536,8.55714 18.82592,12.44137 11.0159,4.4615 23.87028,7.13853 34.61444,7.20878 10.28007,0.0672 17.29712,5.40012 25.42339,19.32154 1.51368,2.59317 9.854,4.21063 22.26931,4.31874 8.33634,0.0726 15.81786,2.69118 15.81786,5.5364 0,2.57145 -9.16689,17.34016 -15.75635,25.38495 -20.94228,25.5675 -96.87155,102.87245 -105.2755,107.18287 -2.28626,1.17264 -7.32385,2.64752 -11.19464,3.27749 -6.22728,1.01353 -7.34136,0.86025 -9.67372,-1.33089 -1.44975,-1.36197 -4.187,-2.47631 -6.08277,-2.47631 -7.20844,0 -20.21208,-10.29255 -23.68882,-18.75 -5.13488,-12.49101 -3.78694,-18.72911 6.969,-32.25198 4.4523,-5.59763 6.62293,-9.49831 6.71744,-12.07146 0.0768,-2.09086 2.46742,-9.01374 5.3125,-15.38419 2.84507,-6.37043 5.17286,-12.06291 5.17286,-12.64992 0,-0.58703 -2.39394,-1.33715 -5.31986,-1.66695 -7.1405,-0.80484 -19.27585,-6.89681 -22.35632,-11.22291 -1.37173,-1.92643 -3.33107,-3.50259 -4.35408,-3.50259 -1.02301,0 -9.56284,-3.27836 -18.97739,-7.28525 -9.41454,-4.00689 -19.0861,-8.05983 -21.49235,-9.00654 -2.40625,-0.94671 -8.5119,-4.55897 -13.56813,-8.02726 -10.22259,-7.01211 -13.39202,-9.00643 -33.52021,-21.09213 -12.7356,-7.64692 -14.87879,-8.50813 -24.375,-9.79478 -16.86945,-2.28565 -16.0675,-2.4718 -18.22647,4.23087 -1.78173,5.5315 -1.74163,6.27301 0.64211,11.875 1.39838,3.2863 3.7903,10.47509 5.31538,15.97509 1.52508,5.5 3.25979,10.30814 3.85492,10.68475 1.02974,0.65166 1.82906,5.63066 4.81699,30.00512 1.79195,14.61812 1.68853,17.55439 -1.25642,35.67322 -2.93106,18.03346 -3.02187,17.73171 7.12547,23.67845 3.37807,1.97967 5.44136,4.0848 5.44136,5.55167 0,3.67171 -7.18084,30.88833 -10.79067,40.89851 -3.15522,8.74949 -3.18824,9.15115 -1.22595,14.91018 2.81407,8.2588 2.52667,13.3989 -1.21545,21.7375 -3.18763,7.103 -3.21237,7.3887 -1.79858,20.7813 2.76211,26.1651 3.54244,36.7237 2.92028,39.5147 -1.86597,8.3704 -3.18554,10.7053 -7.30352,12.923 -4.95425,2.668 -4.89966,2.3959 -2.48611,12.3916 2.35295,9.7447 2.42695,24.7364 0.14376,29.1246 -2.73081,5.2485 -7.09693,8.5291 -13.37658,10.0507 -7.59915,1.8414 -79.24828,8.5546 -102.67968,9.6207 -21.14926,0.9623 -19.60389,-0.4852 -16.08551,15.0661 4.47495,19.7793 12.60644,30.2233 29.43025,37.7998 4.07682,1.8359 13.07799,6.1506 20.00259,9.5881 15.17276,7.532 15.11245,7.3601 9.41846,26.8442 -5.3001,18.1363 -6.42339,19.1634 -21.55691,19.71 -11.16754,0.4034 -11.7661,0.2819 -19.48973,-3.9538 z m 38.3996,-133.4341 c 10.86536,-2.3185 13.73548,-3.4417 17.23965,-6.7465 4.17944,-3.9417 5.1369,-7.1376 3.10084,-10.3502 -0.87405,-1.3791 -1.82308,-1.2864 -5.29336,0.5169 -3.87458,2.0133 -21.77404,9.607 -32.35338,13.7256 -2.40625,0.9367 -6.40044,1.7279 -8.87597,1.758 -5.54067,0.068 -12.37403,2.3405 -12.37403,4.116 0,2.0376 23.4701,0.1993 38.55625,-3.0198 z m -74.24076,-58.4435 c 2.09524,-2.0088 10.1861,-7.0776 17.97972,-11.2641 17.13927,-9.2067 23.1199,-13.2426 32.18959,-21.7227 l 6.937,-6.486 -4.12019,-6.1888 c -3.80608,-5.7171 -4.14442,-7.0512 -4.43807,-17.5001 -0.38289,-13.62378 -3.23921,-34.20553 -5.81989,-41.9361 -3.53799,-10.59829 -7.92743,-68.80944 -6.56299,-87.03611 1.03749,-13.85916 -3.97463,-33.62796 -11.46056,-45.20268 -12.24382,-18.93138 -13.42427,-47.63267 -2.99321,-72.77648 10.04665,-24.21723 16.01906,-38.18279 17.42292,-40.74079 0.79418,-1.44709 5.09282,-5.0084 9.55254,-7.91403 7.583,-4.94052 8.03026,-5.48894 6.90035,-8.46082 -0.95986,-2.52464 -0.75285,-3.5234 1.00704,-4.85873 1.2184,-0.92447 2.53356,-1.69873 2.92259,-1.72061 0.38902,-0.0219 2.02662,-2.43037 3.63911,-5.35225 1.61247,-2.92187 10.03441,-12.36311 18.7154,-20.98054 l 15.78364,-15.66803 2.25181,-12.86574 c 1.2385,-7.07616 2.03522,-13.08234 1.7705,-13.34706 -0.26471,-0.26473 -3.83076,1.74556 -7.92455,4.4673 -5.03125,3.34501 -8.82918,4.94991 -11.72016,4.9526 -4.48699,0.004 -16.39567,4.13832 -26.97308,9.36381 -12.14264,5.99876 -19.32346,7.74195 -27.43491,6.65999 -8.04824,-1.07354 -9.38561,-0.36087 -9.42095,5.02038 -0.0127,1.94397 -3.55901,6.59488 -10.64414,13.95979 -5.9845,6.22083 -10.625,12.1178 -10.625,13.50184 0,3.02045 -8.02344,10.44376 -15.25617,14.11507 -2.95285,1.49886 -7.61883,4.25875 -10.36883,6.13309 -2.75,1.87434 -7.28837,4.56912 -10.08526,5.98842 -2.7969,1.41929 -11.12565,8.5121 -18.50833,15.76179 -7.38268,7.2497 -14.71868,13.89982 -16.30221,14.77803 -1.58354,0.87822 -5.24439,3.39017 -8.13522,5.58211 -2.89083,2.19194 -5.8632,4.18772 -6.60527,4.43507 -1.48292,0.49432 0.9755,9.70458 2.59038,9.70458 0.48686,0 0.91115,0.98437 0.94286,2.1875 0.0317,1.20312 7.9915,31.71875 17.6884,67.8125 16.21156,60.34262 34.35484,130.24751 42.17564,162.5 5.46475,22.5363 17.26292,70.4314 18.39804,74.6875 0.59591,2.2344 1.45213,4.0625 1.90272,4.0625 0.45058,0 2.53351,-1.6435 4.62874,-3.6522 z M 748.6628,889.375 c 9.04642,-12.1377 9.55065,-22.07758 0.55851,-11.01021 C 742.11861,887.10666 730,905.93592 730,908.22984 c 0,1.6927 13.5554,-12.00219 18.6628,-18.85484 z M 251.31142,645.3125 c 4.73505,-3.26563 8.62704,-6.45571 8.64888,-7.08907 0.0219,-0.63337 0.8614,-2.05956 1.8657,-3.16929 1.00431,-1.10974 4.33782,-7.06029 7.40784,-13.22343 3.07,-6.16314 7.57156,-13.12432 10.00347,-15.4693 l 4.42165,-4.2636 1.29553,3.40748 c 0.71252,1.8741 1.29551,3.96515 1.29551,4.64676 0,2.26317 7.12372,-2.92721 9.44816,-6.88398 3.67674,-6.25872 13.89185,-16.50075 29.18531,-29.2622 7.84217,-6.5438 16.28504,-13.91901 18.76194,-16.38935 3.98856,-3.97798 19.22955,-11.09181 30.96174,-14.45158 1.50269,-0.43033 2.90894,-1.56253 3.125,-2.51602 0.21607,-0.95347 4.29421,-5.00517 9.06255,-9.00376 6.22079,-5.21657 9.72689,-9.34897 12.41237,-14.62964 2.35167,-4.62426 5.49975,-8.57313 8.47035,-10.625 3.41679,-2.36005 4.74085,-4.18307 4.77514,-6.57462 0.0261,-1.82 2.05516,-7.2121 4.50904,-11.98244 l 4.4616,-8.67334 -7.96524,-17.39256 C 409.07708,452.20165 399.37181,433.40625 391.89071,420 371.4765,383.4174 372.33283,385.71476 364.40122,346.25 c -5.45858,-27.15995 -7.96328,-37.81206 -9.17622,-39.025 -1.66204,-1.66204 -24.87961,3.58445 -30.50593,6.89345 -2.93923,1.72865 -9.56282,6.90406 -14.71907,11.50092 -5.15625,4.59687 -11.52175,9.81253 -14.14556,11.59036 -4.45595,3.01924 -5.07422,3.12251 -9.375,1.56578 -2.53244,-0.91665 -8.71332,-2.38084 -13.73527,-3.25375 -7.71023,-1.34017 -9.80086,-1.30713 -13.4375,0.21234 -4.29995,1.79664 -4.30671,1.81261 -4.33412,10.22017 -0.0316,9.68747 -3.27308,18.33787 -7.35735,19.63417 -2.05621,0.65261 -2.6152,1.85729 -2.6152,5.63598 0,3.38757 -1.50164,7.32858 -5.08799,13.35328 -6.27064,10.53404 -10.35862,16.5321 -13.4929,19.7973 -1.31986,1.375 -3.88802,7.84375 -5.70704,14.375 -4.67541,16.78731 -5.2789,17.99995 -11.1155,22.33546 -9.92516,7.37257 -14.30703,12.07399 -19.37647,20.78954 l -5.08948,8.75 27.43469,87.96555 C 227.65439,606.9716 240,647.61223 240,648.90305 c 0,3.51705 1.86322,2.92561 11.31142,-3.59055 z"
       id="path3422"
       inkscape:connector-curvature="0" />
    <path
       style="fill:#2ea7fe"
       d="m 364.375,1326.1953 c -2.75,-0.5669 -7.25,-1.8264 -10,-2.7988 l -5,-1.7681 -0.34195,-13.0016 -0.34195,-13.0018 5.34195,-2.1 c 9.39493,-3.6934 21.32169,-4.0274 37.6759,-1.0551 8.09022,1.4702 15.51535,2.9825 16.50027,3.3604 2.43541,0.9346 2.60114,25.6911 0.18542,27.6959 -4.05366,3.3643 -32.33102,5.0788 -44.01964,2.669 z m 32.03165,-62.9699 c -9.79913,-5.374 -12.25842,-7.5489 -15.3205,-13.5486 -1.81877,-3.5636 -24.83615,-87.0409 -24.83615,-90.0734 0,-0.3283 -4.74043,-0.7952 -10.53427,-1.0376 -12.52018,-0.5239 -16.34188,-2.6993 -19.94608,-11.3537 -2.82789,-6.7904 -2.10442,-12.5178 2.35388,-18.6349 6.37811,-8.7512 6.42172,-9.9201 0.56482,-15.1397 -2.89292,-2.5781 -4.76565,-4.6878 -4.16161,-4.6882 0.60405,-4e-4 2.4673,-5.9698 4.14056,-13.2655 2.82882,-12.334 4.39695,-15.8626 7.52586,-16.9347 0.68415,-0.2344 -18.17565,-71.5016 -42.16517,-159.33328 L 250.625,760.30664 l -12.5,-0.61101 c -11.6889,-0.57137 -12.98629,-0.9084 -19.99431,-5.19418 -10.90349,-6.66805 -17.85795,-13.97217 -22.5986,-23.73484 -5.44723,-11.21771 -6.60433,-18.61394 -3.68519,-23.55565 1.89451,-3.20716 1.99662,-4.63883 0.77407,-10.85297 -2.50727,-12.74425 2.73795,-37.60799 7.93374,-37.60799 1.06991,0 1.94529,-0.5625 1.94529,-1.25 0,-0.69306 3.30874,-1.25 7.42622,-1.25 4.08443,0 7.70682,-0.45399 8.04974,-1.00885 1.10475,-1.78753 -50.1297,-162.59936 -54.47457,-170.98175 -6.64884,-12.82735 -6.55144,-12.74704 -11.24788,-9.27481 l -4.00014,2.95742 -9.00633,-4.76003 c -7.4693,-3.94769 -10.1417,-6.27867 -15.65907,-13.65852 -3.659,-4.89415 -9.76003,-12.3259 -13.55785,-16.51498 -4.31368,-4.7581 -10.071645,-13.59486 -15.34262,-23.54634 -8.053149,-15.20417 -9.886075,-20.91933 -7.234638,-22.558 0.757922,-0.46843 0.70236,-1.8419 -0.150206,-3.71308 -1.009865,-2.21641 -0.857031,-5.77202 0.602541,-14.01786 1.075585,-6.07651 3.450373,-22.8607 5.277304,-37.2982 1.826933,-14.4375 4.205181,-28.14732 5.284999,-30.46629 3.06191,-6.57559 8.13812,-8.12019 26.97629,-8.20844 l 16.06878,-0.0752 3.0429,-5.98713 c 3.39127,-6.6726 6.43845,-8.38789 14.9009,-8.38789 4.30733,0 5.54363,-0.45771 5.54363,-2.05243 0,-1.12882 2.25,-5.61503 5,-9.96936 2.95302,-4.67579 5,-9.4469 5,-11.65407 0,-2.35434 1.36199,-5.28837 3.68086,-7.92943 2.02448,-2.30574 4.9836,-6.68469 6.57584,-9.73099 2.05209,-3.92608 3.80096,-5.66458 6.00664,-5.971 1.71141,-0.23775 3.81915,-1.01336 4.68385,-1.72358 2.35658,-1.9356 25.72076,-13.46914 27.28523,-13.46914 0.74658,0 5.11135,-3.8884 9.69949,-8.64089 l 8.34208,-8.64087 13.4255,-1.43488 c 18.16971,-1.94191 23.42906,-3.24959 29.50387,-7.33575 2.8444,-1.91327 13.60914,-8.17176 23.92164,-13.90777 10.3125,-5.736 23.40221,-13.17744 29.08824,-16.53651 12.70138,-7.50349 26.69538,-14.73903 28.52207,-14.74723 0.74816,-0.004 2.65358,-6.33422 4.23424,-14.0686 1.58066,-7.73437 3.36109,-15.01351 3.95649,-16.17585 0.5954,-1.16234 2.41667,-7.06859 4.04725,-13.125 2.36547,-8.78597 4.5773,-13.411827 10.94311,-22.88665 C 396.51716,77.437103 408.07966,65 410.99625,65 c 0.7491,0 2.1228,-1.086205 3.05267,-2.41379 0.92988,-1.327584 7.57115,-5.310952 14.75838,-8.851929 l 13.0677,-6.43814 15.625,0.757074 c 8.59375,0.41639 24.37785,0.693142 35.07577,0.615006 23.33934,-0.170469 28.55672,0.955688 33.31209,7.190305 4.5583,5.976241 14.34321,22.540711 19.91903,33.720119 4.07176,8.163801 4.57392,10.36917 5.69247,24.999995 0.67473,8.8255 0.96852,20.91128 0.65287,26.8573 -0.4905,9.23942 -1.14733,11.81313 -4.51858,17.70547 -4.47014,7.81298 -8.88365,19.81823 -8.88365,24.1645 0,1.95833 2.99582,5.89263 9.13131,11.99181 5.02223,4.9925 11.43167,12.17103 14.24319,15.95228 2.81151,3.78125 7.74425,9.40625 10.96162,12.5 3.21738,3.09375 7.84972,8.33109 10.2941,11.63854 2.44439,3.30745 8.26499,9.22958 12.93469,13.1603 8.56739,7.21161 24.50248,28.30606 33.67353,44.57616 2.32516,4.125 7.35708,11.99086 11.18206,17.47969 3.82498,5.48883 8.13685,12.42877 9.58194,15.42208 l 2.62745,5.44239 17.37255,5.90518 c 9.55491,3.24783 20.5873,7.37717 24.51642,9.17628 9.07972,4.15753 23.47913,15.75298 28.89892,23.27152 5.52281,7.66143 15.83222,32.63139 15.83222,38.34649 0,2.47264 0.64951,5.70936 1.44338,7.19268 0.79385,1.48334 1.83253,6.67175 2.30819,11.52981 0.6289,6.42314 1.75812,10.1834 4.13914,13.78337 6.78063,10.25182 17.32268,36.14887 21.59752,53.05528 2.34397,9.27013 4.26177,18.08259 4.26177,19.58324 0,1.5348 1.50082,3.82175 3.43054,5.22745 3.26083,2.37535 3.42641,2.99293 3.34711,12.48469 -0.0607,7.27827 -0.67376,10.88667 -2.26071,13.30865 -3.10469,4.73835 -12.08068,10.06239 -22.09048,13.10276 l -8.62107,2.61858 0.72608,5.29745 c 0.98302,7.17182 -1.55559,27.0327 -4.65138,36.39031 -1.38873,4.19765 -4.38139,10.72585 -6.65036,14.5071 -2.26899,3.78125 -7.98049,14.46875 -12.69223,23.75 -16.81221,33.1169 -23.68206,41.37563 -39.1125,47.01979 -15.13706,5.53685 -28.31582,11.3273 -42.05,18.4758 -19.10767,9.94536 -25.91612,14.27208 -24.94102,15.84983 0.4269,0.69074 2.94196,2.62308 5.58903,4.29411 2.64708,1.67102 7.9675,6.99198 11.82317,11.82434 3.85567,4.83238 7.78143,8.78613 8.72392,8.78613 0.9425,0 3.42669,2.3294 5.52043,5.17644 2.09373,2.84705 6.50177,6.74002 9.79563,8.65106 3.29387,1.91105 11.05134,7.7255 17.23884,12.92101 6.1875,5.19552 12.05959,9.45878 13.04908,9.47394 0.9895,0.0151 5.20825,3.57583 9.375,7.91261 6.45843,6.72198 9.23536,8.55714 18.82592,12.44137 11.0159,4.4615 23.87028,7.13853 34.61444,7.20878 10.28007,0.0672 17.29712,5.40012 25.42339,19.32154 1.51368,2.59317 9.854,4.21063 22.26931,4.31874 8.33634,0.0726 15.81786,2.69118 15.81786,5.5364 0,2.57145 -9.16689,17.34016 -15.75635,25.38495 -20.94228,25.5675 -96.87155,102.87245 -105.2755,107.18287 -2.28626,1.17264 -7.32385,2.64752 -11.19464,3.27749 -6.22728,1.01353 -7.34136,0.86025 -9.67372,-1.33089 -1.44975,-1.36197 -4.187,-2.47631 -6.08277,-2.47631 -7.20844,0 -20.21208,-10.29255 -23.68882,-18.75 -5.13488,-12.49101 -3.78694,-18.72911 6.969,-32.25198 4.4523,-5.59763 6.62293,-9.49831 6.71744,-12.07146 0.0768,-2.09086 2.46742,-9.01374 5.3125,-15.38419 2.84507,-6.37043 5.17286,-12.06291 5.17286,-12.64992 0,-0.58703 -2.39394,-1.33715 -5.31986,-1.66695 -7.1405,-0.80484 -19.27585,-6.89681 -22.35632,-11.22291 -1.37173,-1.92643 -3.33107,-3.50259 -4.35408,-3.50259 -1.02301,0 -9.56284,-3.27836 -18.97739,-7.28525 -9.41454,-4.00689 -19.0861,-8.05983 -21.49235,-9.00654 -2.40625,-0.94671 -8.5119,-4.55897 -13.56813,-8.02726 -10.22259,-7.01211 -13.39202,-9.00643 -33.52021,-21.09213 -12.7356,-7.64692 -14.87879,-8.50813 -24.375,-9.79478 -16.86945,-2.28565 -16.0675,-2.4718 -18.22647,4.23087 -1.78173,5.5315 -1.74163,6.27301 0.64211,11.875 1.39838,3.2863 3.7903,10.47509 5.31538,15.97509 1.52508,5.5 3.25979,10.30814 3.85492,10.68475 1.02974,0.65166 1.82906,5.63066 4.81699,30.00512 1.79195,14.61812 1.68853,17.55439 -1.25642,35.67322 -2.93106,18.03346 -3.02187,17.73171 7.12547,23.67845 3.37807,1.97967 5.44136,4.0848 5.44136,5.55167 0,3.67171 -7.18084,30.88833 -10.79067,40.89851 -3.15522,8.74949 -3.18824,9.15115 -1.22595,14.91018 2.81407,8.2588 2.52667,13.3989 -1.21545,21.7375 -3.18763,7.103 -3.21237,7.3887 -1.79858,20.7813 2.76211,26.1651 3.54244,36.7237 2.92028,39.5147 -1.86597,8.3704 -3.18554,10.7053 -7.30352,12.923 -4.95425,2.668 -4.89966,2.3959 -2.48611,12.3916 2.35295,9.7447 2.42695,24.7364 0.14376,29.1246 -2.73081,5.2485 -7.09693,8.5291 -13.37658,10.0507 -7.59915,1.8414 -79.24828,8.5546 -102.67968,9.6207 -21.14926,0.9623 -19.60389,-0.4852 -16.08551,15.0661 4.47495,19.7793 12.60644,30.2233 29.43025,37.7998 4.07682,1.8359 13.07799,6.1506 20.00259,9.5881 15.17276,7.532 15.11245,7.3601 9.41846,26.8442 -5.3001,18.1363 -6.42339,19.1634 -21.55691,19.71 -11.16754,0.4034 -11.7661,0.2819 -19.48973,-3.9538 z m 38.3996,-133.4341 c 10.86536,-2.3185 13.73548,-3.4417 17.23965,-6.7465 4.17944,-3.9417 5.1369,-7.1376 3.10084,-10.3502 -0.87405,-1.3791 -1.82308,-1.2864 -5.29336,0.5169 -3.87458,2.0133 -21.77404,9.607 -32.35338,13.7256 -2.40625,0.9367 -6.40044,1.7279 -8.87597,1.758 -5.54067,0.068 -12.37403,2.3405 -12.37403,4.116 0,2.0376 23.4701,0.1993 38.55625,-3.0198 z m -74.24076,-58.4435 c 2.09524,-2.0088 10.1861,-7.0776 17.97972,-11.2641 17.13927,-9.2067 23.1199,-13.2426 32.18959,-21.7227 l 6.937,-6.486 -4.12019,-6.1888 c -3.80608,-5.7171 -4.14442,-7.0512 -4.43807,-17.5001 -0.38289,-13.62378 -3.23921,-34.20553 -5.81989,-41.9361 -3.53799,-10.59829 -7.92743,-68.80944 -6.56299,-87.03611 1.03749,-13.85916 -3.97463,-33.62796 -11.46056,-45.20268 -12.24382,-18.93138 -13.42427,-47.63267 -2.99321,-72.77648 10.04665,-24.21723 16.01906,-38.18279 17.42292,-40.74079 0.79418,-1.44709 5.09282,-5.0084 9.55254,-7.91403 7.583,-4.94052 8.03026,-5.48894 6.90035,-8.46082 -0.95986,-2.52464 -0.75285,-3.5234 1.00704,-4.85873 1.2184,-0.92447 2.53356,-1.69873 2.92259,-1.72061 0.38902,-0.0219 2.02662,-2.43037 3.63911,-5.35225 1.61247,-2.92187 10.03441,-12.36311 18.7154,-20.98054 l 15.78364,-15.66803 2.25181,-12.86574 c 1.2385,-7.07616 2.03522,-13.08234 1.7705,-13.34706 -0.26471,-0.26473 -3.83076,1.74556 -7.92455,4.4673 -5.03125,3.34501 -8.82918,4.94991 -11.72016,4.9526 -4.48699,0.004 -16.39567,4.13832 -26.97308,9.36381 -12.14264,5.99876 -19.32346,7.74195 -27.43491,6.65999 -8.04824,-1.07354 -9.38561,-0.36087 -9.42095,5.02038 -0.0127,1.94397 -3.55901,6.59488 -10.64414,13.95979 -5.9845,6.22083 -10.625,12.1178 -10.625,13.50184 0,3.02045 -8.02344,10.44376 -15.25617,14.11507 -2.95285,1.49886 -7.61883,4.25875 -10.36883,6.13309 -2.75,1.87434 -7.28837,4.56912 -10.08526,5.98842 -2.7969,1.41929 -11.12565,8.5121 -18.50833,15.76179 -7.38268,7.2497 -14.71868,13.89982 -16.30221,14.77803 -1.58354,0.87822 -5.24439,3.39017 -8.13522,5.58211 -2.89083,2.19194 -5.8632,4.18772 -6.60527,4.43507 -1.48292,0.49432 0.9755,9.70458 2.59038,9.70458 0.48686,0 0.91115,0.98437 0.94286,2.1875 0.0317,1.20312 7.9915,31.71875 17.6884,67.8125 16.21156,60.34262 34.35484,130.24751 42.17564,162.5 5.46475,22.5363 17.26292,70.4314 18.39804,74.6875 0.59591,2.2344 1.45213,4.0625 1.90272,4.0625 0.45058,0 2.53351,-1.6435 4.62874,-3.6522 z M 748.6628,889.375 c 9.04642,-12.1377 9.55065,-22.07758 0.55851,-11.01021 C 742.11861,887.10666 730,905.93592 730,908.22984 c 0,1.6927 13.5554,-12.00219 18.6628,-18.85484 z M 251.31142,645.3125 c 4.73505,-3.26563 8.62704,-6.45571 8.64888,-7.08907 0.0219,-0.63337 0.8614,-2.05956 1.8657,-3.16929 1.00431,-1.10974 4.33782,-7.06029 7.40784,-13.22343 3.07,-6.16314 7.57156,-13.12432 10.00347,-15.4693 l 4.42165,-4.2636 1.29553,3.40748 c 0.71252,1.8741 1.29551,3.96515 1.29551,4.64676 0,2.26317 7.12372,-2.92721 9.44816,-6.88398 3.67674,-6.25872 13.89185,-16.50075 29.18531,-29.2622 7.84217,-6.5438 16.28504,-13.91901 18.76194,-16.38935 3.98856,-3.97798 19.22955,-11.09181 30.96174,-14.45158 1.50269,-0.43033 2.90894,-1.56253 3.125,-2.51602 0.21607,-0.95347 4.29421,-5.00517 9.06255,-9.00376 6.22079,-5.21657 9.72689,-9.34897 12.41237,-14.62964 2.35167,-4.62426 5.49975,-8.57313 8.47035,-10.625 3.41679,-2.36005 4.74085,-4.18307 4.77514,-6.57462 0.0261,-1.82 2.05516,-7.2121 4.50904,-11.98244 l 4.4616,-8.67334 -7.96524,-17.39256 C 409.07708,452.20165 399.37181,433.40625 391.89071,420 371.4765,383.4174 372.33283,385.71476 364.40122,346.25 c -5.45858,-27.15995 -7.96328,-37.81206 -9.17622,-39.025 -1.66204,-1.66204 -24.87961,3.58445 -30.50593,6.89345 -2.93923,1.72865 -9.56282,6.90406 -14.71907,11.50092 -5.15625,4.59687 -11.52175,9.81253 -14.14556,11.59036 -4.45595,3.01924 -5.07422,3.12251 -9.375,1.56578 -2.53244,-0.91665 -8.71332,-2.38084 -13.73527,-3.25375 -7.71023,-1.34017 -9.80086,-1.30713 -13.4375,0.21234 -4.29995,1.79664 -4.30671,1.81261 -4.33412,10.22017 -0.0316,9.68747 -3.27308,18.33787 -7.35735,19.63417 -2.05621,0.65261 -2.6152,1.85729 -2.6152,5.63598 0,3.38757 -1.50164,7.32858 -5.08799,13.35328 -6.27064,10.53404 -10.35862,16.5321 -13.4929,19.7973 -1.31986,1.375 -3.88802,7.84375 -5.70704,14.375 -4.67541,16.78731 -5.2789,17.99995 -11.1155,22.33546 -9.92516,7.37257 -14.30703,12.07399 -19.37647,20.78954 l -5.08948,8.75 27.43469,87.96555 C 227.65439,606.9716 240,647.61223 240,648.90305 c 0,3.51705 1.86322,2.92561 11.31142,-3.59055 z"
       id="path3420"
       inkscape:connector-curvature="0" />
    <path
       style="fill:#0095fe"
       d="m 364.375,1326.1953 c -60.82458,-35.0724 65.91285,-58.2678 42.99269,-7.3573 -10.96625,10.8076 -29.14267,14.6732 -42.99269,7.3573 z m 32.03165,-62.9699 c -38.17345,-30.2237 -20.3374,-103.6541 -68.63983,-118.7664 5.20531,-53.3082 7.1181,-106.3984 -15.13552,-156.5816 C 292.18915,911.95888 271.28163,836.16686 250.625,760.30664 197.95612,769.13298 171.57012,694.31149 203.05555,659.66331 232.67919,622.16904 178.62317,565.13244 175.8385,519.08451 169.77584,464.02247 101.7433,469.56599 91.452287,410.25409 86.39931,373.04569 79.618579,293.1056 140.00235,301.38264 183.14855,260.00117 219.11123,207.45672 284.87524,197.5249 351.4786,184.00077 374.71252,126.37903 400.25934,74.601202 432.74585,39.902866 500.37855,31.365191 533.73162,68.234058 579.9137,120.1518 508.60925,196.50139 583.43002,235.192 c 40.0365,26.02855 45.45663,83.58549 88.47364,104.63734 71.0527,6.93898 65.2582,91.46901 93.37241,138.98082 22.08688,33.90619 10.21857,75.73459 -17.93389,93.0217 -4.89041,54.85942 -36.49557,113.14972 -93.22102,127.42648 -71.73024,25.26795 21.82572,72.47637 50.21271,92.69938 30.37836,24.75335 100.7069,26.10754 107.09371,61.11583 -40.51724,40.63628 -75.72465,90.92108 -124.33914,120.97473 -53.04476,6.05588 -47.13991,-59.58738 -23.88338,-86.29338 -27.74824,-37.69641 -86.53975,-40.63961 -121.37823,-74.06645 -69.53794,-22.37782 -6.45985,62.20352 -20.30292,96.15472 12.27693,54.76159 -7.63412,107.15253 -3.40003,163.91323 2.75668,48.6321 -19.92623,94.4038 -77.17064,81.0559 -44.15289,-13.7282 -90.71389,26.3267 -34.41435,53.5052 43.99677,14.858 42.96444,74.9377 -10.13224,54.9079 z m 38.3996,-133.4341 c 65.13077,-34.2062 -78.19215,10.2335 -12.38888,2.1164 4.15194,-0.5855 8.28037,-1.2772 12.38888,-2.1164 z m -74.24076,-58.4435 c 47.28295,-14.9054 67.91321,-56.57 42.90499,-100.60515 -5.41858,-58.29894 -7.88071,-115.12747 -26.85087,-169.91607 -6.93821,-67.02898 57.46457,-105.98105 83.89104,-157.9758 -16.70567,-20.90002 -65.40697,18.48131 -85.36353,21.5668 -19.26291,48.64054 -102.31902,54.94267 -97.78475,111.9261 C 306.6324,874.9125 329.30375,975.52613 355.93675,1075 l 2.31953,-1.8302 2.30921,-1.822 0,0 z M 748.6628,889.375 c 19.54645,-40.93957 -37.33411,42.3558 -1.28415,1.53849 L 748.6628,889.375 Z M 251.31142,645.3125 c 32.86421,-45.25425 76.33469,-74.93073 124.38338,-105.6109 59.77419,-30.36019 42.21821,-92.04168 7.02661,-133.84659 -17.82513,-36.85384 -15.93052,-132.42521 -73.64916,-79.96657 -29.1478,20.18694 -64.9683,3.77515 -65.43242,49.98239 -9.50666,48.28054 -79.10416,79.18386 -47.10248,131.32826 19.73815,41.25901 23.6667,120.29327 53.16193,139.08744 l 1.61214,-0.97403 z"
       id="path3418"
       inkscape:connector-curvature="0" />
  </g>
</svg>
